<svg width="16" height="16" viewBox="0 0 16 16" fill="none" xmlns="http://www.w3.org/2000/svg">
<g id="Frame">
<path id="Vector" d="M5.12208 7.01899C4.98108 6.76529 4.75983 6.56559 4.49306 6.45124C4.22628 6.33688 3.92909 6.31435 3.64813 6.38718C3.36716 6.46001 3.11833 6.62408 2.9407 6.85362C2.76307 7.08317 2.66669 7.3652 2.66669 7.65545C2.66669 7.9457 2.76307 8.22774 2.9407 8.45728C3.11833 8.68683 3.36716 8.85089 3.64813 8.92372C3.92909 8.99655 4.22628 8.97402 4.49306 8.85967C4.75983 8.74531 4.98108 8.54561 5.12208 8.29191M5.12208 7.01899C5.2269 7.20766 5.28687 7.42428 5.28687 7.65545C5.28687 7.88663 5.2269 8.10383 5.12208 8.29191M5.12208 7.01899L10.6924 3.92463M5.12208 8.29191L10.6924 11.3863M10.6924 3.92463C10.7741 4.07844 10.8856 4.21442 11.0204 4.32463C11.1553 4.43484 11.3107 4.51706 11.4777 4.56649C11.6447 4.61592 11.8199 4.63156 11.993 4.6125C12.1661 4.59344 12.3336 4.54007 12.4859 4.45549C12.6381 4.37092 12.7719 4.25685 12.8796 4.11994C12.9872 3.98304 13.0665 3.82605 13.1127 3.65816C13.159 3.49026 13.1713 3.31484 13.1489 3.14213C13.1266 2.96942 13.0701 2.8029 12.9826 2.6523C12.8103 2.35552 12.5284 2.1382 12.1975 2.04706C11.8667 1.95591 11.5133 1.99822 11.2133 2.16488C10.9133 2.33154 10.6907 2.60925 10.5933 2.93832C10.4959 3.26738 10.5315 3.62153 10.6924 3.92463ZM10.6924 11.3863C10.6088 11.5367 10.5557 11.7022 10.5361 11.8732C10.5164 12.0441 10.5306 12.2173 10.5779 12.3828C10.6252 12.5483 10.7046 12.7029 10.8116 12.8376C10.9187 12.9724 11.0512 13.0848 11.2016 13.1684C11.3521 13.252 11.5175 13.3051 11.6885 13.3248C11.8595 13.3444 12.0327 13.3302 12.1982 13.2829C12.3636 13.2356 12.5182 13.1562 12.653 13.0492C12.7878 12.9422 12.9002 12.8096 12.9838 12.6592C13.1526 12.3553 13.1937 11.9969 13.0983 11.6627C13.0028 11.3284 12.7784 11.0458 12.4745 10.8771C12.1707 10.7083 11.8122 10.6671 11.478 10.7626C11.1438 10.8581 10.8612 11.0824 10.6924 11.3863Z" stroke="#001011" stroke-linecap="round" stroke-linejoin="round"/>
</g>
</svg>
