<svg width="16" height="16" viewBox="0 0 16 16" fill="none" xmlns="http://www.w3.org/2000/svg">
<g id="Frame">
<path id="Vector" d="M9.72049 5.92327L9.5194 11.1539M6.73671 11.1539L6.53562 5.92327M12.3288 4.05768C12.5276 4.08791 12.7252 4.11987 12.9228 4.15416M12.3288 4.05768L11.7081 12.1262C11.6828 12.4547 11.5344 12.7615 11.2926 12.9853C11.0508 13.2092 10.7334 13.3334 10.404 13.3333H5.85215C5.52268 13.3334 5.20531 13.2092 4.96351 12.9853C4.72172 12.7615 4.57331 12.4547 4.54798 12.1262L3.92728 4.05768M12.3288 4.05768C11.6581 3.95628 10.9838 3.87932 10.3075 3.82696M3.92728 4.05768C3.72852 4.08732 3.53091 4.11929 3.33331 4.15358M3.92728 4.05768C4.59804 3.95628 5.27227 3.87932 5.94863 3.82696M10.3075 3.82696V3.29459C10.3075 2.6088 9.77861 2.03692 9.09282 2.01541C8.44981 1.99486 7.80631 1.99486 7.1633 2.01541C6.4775 2.03692 5.94863 2.60938 5.94863 3.29459V3.82696M10.3075 3.82696C8.8567 3.71483 7.39942 3.71483 5.94863 3.82696" stroke="#001011" stroke-linecap="round" stroke-linejoin="round"/>
</g>
</svg>
