<svg width="16" height="16" viewBox="0 0 16 16" fill="none" xmlns="http://www.w3.org/2000/svg">
<g id="Frame">
<path id="Vector" d="M8 7.13636V11.2576M10 9.19697H6M8.70667 4.25838L7.29333 2.80222C7.20048 2.70644 7.09022 2.63045 6.96886 2.57859C6.84749 2.52674 6.71739 2.50003 6.586 2.5H3C2.60218 2.5 2.22064 2.66282 1.93934 2.95265C1.65804 3.24248 1.5 3.63557 1.5 4.04545V12.2879C1.5 12.6978 1.65804 13.0909 1.93934 13.3807C2.22064 13.6705 2.60218 13.8333 3 13.8333H13C13.3978 13.8333 13.7794 13.6705 14.0607 13.3807C14.342 13.0909 14.5 12.6978 14.5 12.2879V6.10606C14.5 5.69618 14.342 5.30309 14.0607 5.01326C13.7794 4.72343 13.3978 4.56061 13 4.56061H9.414C9.14887 4.56037 8.89402 4.45166 8.70667 4.25838Z" stroke="#001011" stroke-linecap="round" stroke-linejoin="round"/>
</g>
</svg>
