<svg width="24" height="24" viewBox="0 0 24 24" fill="none" xmlns="http://www.w3.org/2000/svg">
<g id="Frame">
<path id="Vector" d="M3 5.45455C3 4.80356 3.2586 4.17924 3.71892 3.71892C4.17924 3.2586 4.80356 3 5.45455 3H7.90909C8.56008 3 9.1844 3.2586 9.64472 3.71892C10.105 4.17924 10.3636 4.80356 10.3636 5.45455V7.90909C10.3636 8.56008 10.105 9.1844 9.64472 9.64472C9.1844 10.105 8.56008 10.3636 7.90909 10.3636H5.45455C4.80356 10.3636 4.17924 10.105 3.71892 9.64472C3.2586 9.1844 3 8.56008 3 7.90909V5.45455ZM3 16.0909C3 15.4399 3.2586 14.8156 3.71892 14.3553C4.17924 13.895 4.80356 13.6364 5.45455 13.6364H7.90909C8.56008 13.6364 9.1844 13.895 9.64472 14.3553C10.105 14.8156 10.3636 15.4399 10.3636 16.0909V18.5455C10.3636 19.1964 10.105 19.8208 9.64472 20.2811C9.1844 20.7414 8.56008 21 7.90909 21H5.45455C4.80356 21 4.17924 20.7414 3.71892 20.2811C3.2586 19.8208 3 19.1964 3 18.5455V16.0909ZM13.6364 5.45455C13.6364 4.80356 13.895 4.17924 14.3553 3.71892C14.8156 3.2586 15.4399 3 16.0909 3H18.5455C19.1964 3 19.8208 3.2586 20.2811 3.71892C20.7414 4.17924 21 4.80356 21 5.45455V7.90909C21 8.56008 20.7414 9.1844 20.2811 9.64472C19.8208 10.105 19.1964 10.3636 18.5455 10.3636H16.0909C15.4399 10.3636 14.8156 10.105 14.3553 9.64472C13.895 9.1844 13.6364 8.56008 13.6364 7.90909V5.45455ZM13.6364 16.0909C13.6364 15.4399 13.895 14.8156 14.3553 14.3553C14.8156 13.895 15.4399 13.6364 16.0909 13.6364H18.5455C19.1964 13.6364 19.8208 13.895 20.2811 14.3553C20.7414 14.8156 21 15.4399 21 16.0909V18.5455C21 19.1964 20.7414 19.8208 20.2811 20.2811C19.8208 20.7414 19.1964 21 18.5455 21H16.0909C15.4399 21 14.8156 20.7414 14.3553 20.2811C13.895 19.8208 13.6364 19.1964 13.6364 18.5455V16.0909Z" stroke="#565656" stroke-width="1.5" stroke-linecap="round" stroke-linejoin="round"/>
</g>
</svg>
