<svg width="1608" height="934" viewBox="0 0 1608 934" fill="none" xmlns="http://www.w3.org/2000/svg">
<g clip-path="url(#clip0_330_207)">
<path d="M1079 612.09H529V612.365H1079V612.09Z" fill="#EBEBEB"/>
<path d="M789.7 563.03H577.301C575.637 563.027 574.042 562.364 572.867 561.187C571.691 560.009 571.031 558.413 571.031 556.749V258.176C571.045 256.522 571.712 254.94 572.886 253.774C574.06 252.608 575.647 251.953 577.301 251.95H789.7C791.366 251.95 792.963 252.612 794.141 253.79C795.319 254.968 795.981 256.565 795.981 258.231V556.749C795.981 558.415 795.319 560.013 794.141 561.191C792.963 562.368 791.366 563.03 789.7 563.03ZM577.301 252.17C575.71 252.173 574.185 252.807 573.061 253.933C571.937 255.059 571.306 256.585 571.306 258.176V556.749C571.306 558.34 571.937 559.866 573.061 560.992C574.185 562.118 575.71 562.752 577.301 562.755H789.7C791.292 562.752 792.818 562.119 793.944 560.993C795.069 559.867 795.703 558.341 795.706 556.749V258.176C795.703 256.584 795.069 255.058 793.944 253.933C792.818 252.807 791.292 252.173 789.7 252.17H577.301Z" fill="#EBEBEB"/>
<path d="M1027.64 563.03H815.231C813.566 563.027 811.97 562.365 810.793 561.187C809.616 560.01 808.953 558.414 808.95 556.749V258.176C808.967 256.521 809.636 254.939 810.812 253.774C811.988 252.608 813.576 251.953 815.231 251.95H1027.64C1029.29 251.956 1030.88 252.613 1032.05 253.778C1033.22 254.944 1033.89 256.524 1033.9 258.176V556.749C1033.9 558.411 1033.24 560.005 1032.07 561.183C1030.89 562.36 1029.3 563.024 1027.64 563.03ZM815.231 252.17C813.639 252.173 812.113 252.807 810.987 253.933C809.862 255.058 809.228 256.584 809.225 258.176V556.749C809.228 558.341 809.862 559.867 810.987 560.993C812.113 562.119 813.639 562.752 815.231 562.755H1027.64C1029.23 562.752 1030.76 562.119 1031.88 560.993C1033.01 559.867 1033.64 558.341 1033.65 556.749V258.176C1033.64 256.584 1033.01 255.058 1031.88 253.933C1030.76 252.807 1029.23 252.173 1027.64 252.17H815.231Z" fill="#EBEBEB"/>
<path d="M749.484 622.562H720.884V622.837H749.484V622.562Z" fill="#EBEBEB"/>
<path d="M646.216 619.581H586.706V619.856H646.216V619.581Z" fill="#EBEBEB"/>
<path d="M719.784 632.781H690.832V633.056H719.784V632.781Z" fill="#EBEBEB"/>
<path d="M855.766 630.934H813.053V631.209H855.766V630.934Z" fill="#EBEBEB"/>
<path d="M877.315 630.934H865.556V631.209H877.315V630.934Z" fill="#EBEBEB"/>
<path d="M1023.9 626.291H963.885V626.566H1023.9V626.291Z" fill="#EBEBEB"/>
<path d="M776.83 291.825H613.612V464.063H776.83V291.825Z" fill="#E6E6E6"/>
<path d="M794.331 286.248H603.052C602.62 286.248 602.206 286.42 601.901 286.725C601.596 287.03 601.424 287.444 601.424 287.876C601.424 288.089 601.466 288.3 601.548 288.497C601.63 288.694 601.75 288.873 601.902 289.023C602.053 289.174 602.232 289.293 602.43 289.373C602.627 289.454 602.839 289.494 603.052 289.493H794.331C794.76 289.493 795.171 289.323 795.474 289.019C795.778 288.716 795.948 288.305 795.948 287.876C795.949 287.663 795.909 287.451 795.828 287.254C795.747 287.056 795.629 286.877 795.478 286.726C795.328 286.574 795.149 286.454 794.952 286.372C794.755 286.29 794.544 286.248 794.331 286.248Z" fill="#E6E6E6"/>
<path d="M783.771 291.825H616.857V464.063H783.771V291.825Z" fill="#F0F0F0"/>
<path d="M776.83 464.063H613.612V470.498H776.83V464.063Z" fill="#E6E6E6"/>
<path d="M795.299 464.063H628.385V470.498H795.299V464.063Z" fill="#F0F0F0"/>
<path d="M774.069 454.372V301.527H626.548V454.372H774.069Z" fill="#FAFAFA"/>
<path d="M660.032 454.373L716.946 301.517H743.808L686.905 454.373H660.032Z" fill="white"/>
<path d="M692.669 454.373L749.583 301.517H760.055L703.141 454.373H692.669Z" fill="white"/>
<path d="M774.069 454.362V301.517H772.837V454.362H774.069Z" fill="#E6E6E6"/>
<g opacity="0.6">
<path d="M622.544 438.928H602.051L613.095 283.355H633.588L622.544 438.928Z" fill="#F0F0F0"/>
<path d="M630.53 438.928H614.558L625.602 283.355H641.574L630.53 438.928Z" fill="#E6E6E6"/>
<path d="M643.037 438.928H622.544L633.588 283.355H654.081L643.037 438.928Z" fill="#F0F0F0"/>
<path d="M651.023 438.928H635.051L646.106 283.355H662.067L651.023 438.928Z" fill="#E6E6E6"/>
<path d="M663.53 438.928H643.037L654.081 283.355H674.585L663.53 438.928Z" fill="#F0F0F0"/>
</g>
<g opacity="0.6">
<path d="M780.383 438.928H791.966L785.729 283.355H774.146L780.383 438.928Z" fill="#F0F0F0"/>
<path d="M775.873 438.928H784.893L778.656 283.355H769.625L775.873 438.928Z" fill="#E6E6E6"/>
<path d="M768.8 438.928H780.383L774.146 283.355H762.563L768.8 438.928Z" fill="#F0F0F0"/>
<path d="M764.29 438.928H773.31L767.073 283.355H758.042L764.29 438.928Z" fill="#E6E6E6"/>
<path d="M757.217 438.928H768.8L762.563 283.355H750.98L757.217 438.928Z" fill="#F0F0F0"/>
</g>
<path d="M998.326 283.355H885.455V433.417H998.326V283.355Z" fill="#E6E6E6"/>
<path d="M1006.89 283.355H888.975V433.417H1006.89V283.355Z" fill="#F5F5F5"/>
<path d="M904.253 289.482L893.757 419.364L991.602 427.271L1002.1 297.388L904.253 289.482Z" fill="white"/>
<path d="M999.679 297.192L989.184 427.074L991.596 427.269L1002.09 297.387L999.679 297.192Z" fill="#E6E6E6"/>
<path d="M1013.12 489.474H950.08V612.091H1013.12V489.474Z" fill="#F5F5F5"/>
<path d="M1013.12 489.474H1007.92V612.091H1013.12V489.474Z" fill="#F0F0F0"/>
<path d="M809.786 544.848H954.942V492.961H809.786V544.848Z" fill="#E6E6E6"/>
<path d="M816.771 498.658H1013.11V489.462H816.771V498.658Z" fill="#F0F0F0"/>
<path d="M816.782 489.474H753.741V612.091H816.782V489.474Z" fill="#F5F5F5"/>
<path d="M756.018 528.534H756.304C760.327 528.534 764.185 530.132 767.03 532.977C769.875 535.822 771.473 539.68 771.473 543.703V612.09H740.849V543.703C740.849 539.68 742.447 535.822 745.292 532.977C748.137 530.132 751.995 528.534 756.018 528.534Z" fill="#E6E6E6"/>
<path d="M816.782 489.474H811.579V612.091H816.782V489.474Z" fill="#F0F0F0"/>
<path d="M887.732 489.473H874.136L877.436 462.996H891.043L887.732 489.473Z" fill="#F0F0F0"/>
<path d="M890.746 489.473H877.139L880.45 462.996H894.046L890.746 489.473Z" fill="#F5F5F5"/>
<path d="M892.396 476.229H878.8L880.45 462.996H894.046L892.396 476.229Z" fill="#F0F0F0"/>
<path d="M842.423 473.05H938.629C938.818 473.05 939.004 473.01 939.176 472.932C939.348 472.855 939.501 472.741 939.626 472.6C939.751 472.458 939.844 472.292 939.9 472.112C939.956 471.931 939.972 471.741 939.949 471.554L932.535 412.242C932.495 411.92 932.339 411.624 932.095 411.41C931.852 411.195 931.539 411.076 931.215 411.076H835.009C834.824 411.08 834.642 411.122 834.473 411.199C834.305 411.277 834.155 411.388 834.032 411.527C833.909 411.665 833.816 411.828 833.759 412.004C833.702 412.18 833.682 412.366 833.7 412.55L841.092 471.95C841.149 472.261 841.314 472.541 841.557 472.743C841.801 472.944 842.107 473.053 842.423 473.05Z" fill="#F0F0F0"/>
<path d="M843.853 473.05H940.059C940.248 473.05 940.434 473.01 940.606 472.932C940.778 472.855 940.931 472.741 941.056 472.6C941.181 472.458 941.274 472.292 941.33 472.112C941.386 471.931 941.402 471.741 941.379 471.554L933.965 412.242C933.925 411.92 933.768 411.624 933.525 411.41C933.282 411.195 932.969 411.076 932.645 411.076H836.439C836.25 411.076 836.063 411.117 835.891 411.194C835.718 411.272 835.564 411.385 835.439 411.526C835.313 411.667 835.218 411.834 835.161 412.014C835.105 412.194 835.086 412.384 835.108 412.572L842.5 471.95C842.558 472.265 842.725 472.548 842.973 472.75C843.222 472.952 843.533 473.058 843.853 473.05Z" fill="#F5F5F5"/>
<path d="M938.277 469.75L931.336 414.233C931.323 414.144 931.278 414.062 931.209 414.003C931.14 413.945 931.052 413.913 930.962 413.914H838.562C838.509 413.914 838.456 413.925 838.408 413.946C838.359 413.968 838.316 413.999 838.281 414.039C838.245 414.078 838.219 414.125 838.203 414.175C838.187 414.226 838.182 414.279 838.188 414.332L845.129 469.849C845.142 469.938 845.188 470.02 845.256 470.079C845.325 470.137 845.413 470.169 845.503 470.168H937.903C937.956 470.168 938.009 470.158 938.057 470.136C938.106 470.115 938.149 470.083 938.184 470.043C938.22 470.004 938.246 469.957 938.262 469.907C938.278 469.856 938.283 469.803 938.277 469.75Z" fill="#E6E6E6"/>
<path d="M928.421 470.212L904.001 413.947H882.584L907.004 470.212H928.421Z" fill="#EBEBEB"/>
<path d="M902.879 470.212L878.459 413.947H870.748L895.168 470.212H902.879Z" fill="#EBEBEB"/>
<path d="M903.088 489.474H880.934V489.199C880.934 488.615 881.166 488.056 881.578 487.643C881.991 487.23 882.551 486.999 883.134 486.999H900.888C901.471 486.999 902.031 487.23 902.444 487.643C902.856 488.056 903.088 488.615 903.088 489.199V489.474Z" fill="#F5F5F5"/>
<path d="M883.53 489.474H868.504V489.199C868.504 488.615 868.736 488.056 869.148 487.643C869.561 487.23 870.121 486.999 870.704 486.999H881.319C881.902 486.999 882.462 487.23 882.875 487.643C883.287 488.056 883.519 488.615 883.519 489.199V489.474H883.53Z" fill="#F0F0F0"/>
<path d="M927.596 489.474H859.11L857.262 483.974H918.686L927.596 489.474Z" fill="#F5F5F5"/>
<path d="M866.645 489.474H855.326L853.797 483.974H865.116L866.645 489.474Z" fill="#F0F0F0"/>
<path d="M844.854 489.462H825.362C825.362 488.242 825.846 487.073 826.709 486.211C827.571 485.348 828.741 484.864 829.96 484.864H840.256C841.475 484.864 842.645 485.348 843.507 486.211C844.37 487.073 844.854 488.242 844.854 489.462Z" fill="#F0F0F0"/>
<path d="M627.142 612.09H646.249V523.287H627.142V612.09Z" fill="#E0E0E0"/>
<path d="M711.974 612.09H634.732L625.184 507.15H702.426L711.974 612.09Z" fill="#E6E6E6"/>
<path d="M715.978 612.09H638.736L629.177 507.15H706.43L715.978 612.09Z" fill="#F0F0F0"/>
<path d="M649.296 600.475L641.849 518.767H695.87L703.306 600.475H649.296Z" fill="white"/>
<path d="M804 661.766C921.791 661.766 1017.28 656.191 1017.28 649.314C1017.28 642.437 921.791 636.862 804 636.862C686.209 636.862 590.721 642.437 590.721 649.314C590.721 656.191 686.209 661.766 804 661.766Z" fill="#F5F5F5"/>
<path d="M637.98 386.146L636.881 386.182L637.359 400.837L638.459 400.801L637.98 386.146Z" fill="#2957A5"/>
<path d="M637.568 373.497L636.469 373.533L636.696 380.504L637.796 380.468L637.568 373.497Z" fill="#2957A5"/>
<path d="M652.42 479.507H862.366C863.488 479.513 864.6 479.291 865.634 478.855C866.668 478.419 867.604 477.779 868.384 476.972C869.164 476.165 869.772 475.209 870.173 474.161C870.574 473.112 870.758 471.994 870.715 470.872L866.04 327.619C865.947 325.312 864.97 323.128 863.311 321.521C861.653 319.913 859.44 319.005 857.13 318.984H647.184C646.061 318.979 644.949 319.201 643.914 319.637C642.88 320.072 641.944 320.713 641.163 321.519C640.382 322.326 639.772 323.282 639.37 324.33C638.968 325.379 638.783 326.498 638.824 327.619L643.499 470.85C643.589 473.163 644.566 475.352 646.227 476.964C647.888 478.576 650.106 479.487 652.42 479.507Z" fill="#2957A5"/>
<path d="M653.091 479.507H863.037C864.16 479.513 865.272 479.291 866.307 478.855C867.341 478.42 868.277 477.779 869.058 476.973C869.839 476.166 870.449 475.21 870.851 474.161C871.253 473.113 871.439 471.994 871.397 470.872L866.7 327.619C866.604 325.311 865.625 323.127 863.965 321.52C862.304 319.913 860.09 319.005 857.779 318.984H647.855C646.733 318.979 645.621 319.201 644.587 319.637C643.553 320.073 642.618 320.713 641.837 321.52C641.057 322.327 640.449 323.283 640.048 324.331C639.647 325.38 639.463 326.498 639.506 327.619L644.181 470.85C644.269 473.162 645.243 475.351 646.902 476.963C648.562 478.575 650.778 479.486 653.091 479.507Z" fill="#2957A5"/>
<path opacity="0.5" d="M653.091 479.507H863.037C864.16 479.513 865.272 479.291 866.307 478.855C867.341 478.42 868.277 477.779 869.058 476.973C869.839 476.166 870.449 475.21 870.851 474.161C871.253 473.113 871.439 471.994 871.397 470.872L866.7 327.619C866.604 325.311 865.625 323.127 863.965 321.52C862.304 319.913 860.09 319.005 857.779 318.984H647.855C646.733 318.979 645.621 319.201 644.587 319.637C643.553 320.073 642.618 320.713 641.837 321.52C641.057 322.327 640.449 323.283 640.048 324.331C639.647 325.38 639.463 326.498 639.506 327.619L644.181 470.85C644.269 473.162 645.243 475.351 646.902 476.963C648.562 478.575 650.778 479.486 653.091 479.507Z" fill="white"/>
<path opacity="0.5" d="M857.273 323.297H647.316H646.612C641.233 323.737 642.003 331.899 647.426 331.899H857.735C863.147 331.899 863.389 323.737 857.977 323.297C857.746 323.308 857.504 323.297 857.273 323.297Z" fill="#2957A5"/>
<path d="M652.618 327.62C652.627 327.876 652.584 328.132 652.492 328.371C652.399 328.61 652.26 328.828 652.081 329.012C651.902 329.196 651.688 329.342 651.451 329.441C651.215 329.54 650.961 329.59 650.704 329.589C650.175 329.586 649.668 329.38 649.287 329.014C648.906 328.647 648.681 328.148 648.658 327.62C648.648 327.362 648.69 327.106 648.781 326.865C648.873 326.625 649.012 326.405 649.191 326.22C649.37 326.035 649.585 325.888 649.822 325.788C650.06 325.689 650.315 325.638 650.572 325.64C651.103 325.639 651.614 325.846 651.996 326.215C652.378 326.585 652.601 327.089 652.618 327.62Z" fill="#FAFAFA"/>
<path d="M659.35 327.62C659.361 327.876 659.319 328.133 659.227 328.373C659.135 328.613 658.995 328.831 658.816 329.016C658.637 329.2 658.422 329.346 658.185 329.444C657.948 329.543 657.693 329.592 657.436 329.589C656.908 329.584 656.402 329.377 656.022 329.011C655.641 328.645 655.415 328.147 655.39 327.62C655.38 327.362 655.422 327.106 655.513 326.865C655.605 326.625 655.744 326.405 655.923 326.22C656.102 326.035 656.317 325.888 656.554 325.788C656.791 325.689 657.047 325.638 657.304 325.64C657.835 325.639 658.346 325.846 658.728 326.215C659.11 326.585 659.333 327.089 659.35 327.62Z" fill="#FAFAFA"/>
<path d="M665.548 329.035C666.301 328.269 666.27 327.015 665.477 326.236C664.684 325.456 663.43 325.446 662.677 326.213C661.923 326.98 661.954 328.233 662.747 329.013C663.54 329.792 664.794 329.802 665.548 329.035Z" fill="#FAFAFA"/>
<path d="M657.161 465.208H858.043C858.45 465.211 858.853 465.132 859.228 464.975C859.603 464.818 859.942 464.586 860.225 464.294C860.508 464.002 860.728 463.655 860.873 463.275C861.018 462.895 861.084 462.49 861.068 462.084L857.218 344.263C857.174 343.43 856.815 342.644 856.215 342.065C855.615 341.485 854.818 341.154 853.984 341.139H653.113C652.706 341.135 652.303 341.215 651.928 341.372C651.553 341.529 651.214 341.761 650.931 342.053C650.648 342.345 650.428 342.691 650.283 343.071C650.138 343.451 650.072 343.856 650.088 344.263L653.927 462.051C653.963 462.89 654.318 463.683 654.919 464.27C655.52 464.856 656.322 465.192 657.161 465.208Z" fill="white"/>
<g opacity="0.3">
<path d="M804.583 450.633H800.909V449.588H803.505L803.417 446.992L804.462 446.959L804.583 450.633Z" fill="#2957A5"/>
<path d="M795.068 450.633H789.227V449.533H795.068V450.633ZM783.386 450.633H777.6V449.533H783.441L783.386 450.633ZM771.704 450.633H765.863V449.533H771.704V450.633ZM760.022 450.633H754.181V449.533H760L760.022 450.633ZM748.351 450.633H742.499V449.533H748.351V450.633ZM736.669 450.633H730.828V449.533H736.669V450.633ZM724.987 450.633H719.146V449.533H724.987V450.633Z" fill="#2957A5"/>
<path d="M713.305 450.633H709.664L709.554 446.992L710.588 446.959L710.676 449.588H713.305V450.633Z" fill="#2957A5"/>
<path d="M709.4 441.151L709.213 435.31H710.313L710.5 441.151H709.4ZM709.026 429.469L708.828 423.628H709.873L710.06 429.469H709.026ZM708.641 417.787L708.454 411.946H709.488L709.686 417.787H708.641ZM708.256 406.116L708.069 400.275H709.114L709.301 406.116H708.256ZM707.882 394.434L707.684 388.593H708.729L708.916 394.434H707.882ZM707.497 382.741L707.31 376.911H708.344L708.542 382.752L707.497 382.741ZM707.112 371.07L706.925 365.229H707.97L708.157 371.07H707.112Z" fill="#2957A5"/>
<path d="M706.694 359.377L706.573 355.714H710.236V356.759H707.651L707.728 359.344L706.694 359.377Z" fill="#2957A5"/>
<path d="M792.01 356.759H786.169V355.714H792.01V356.759ZM780.328 356.759H774.487V355.714H780.328V356.759ZM768.646 356.759H762.805V355.714H768.646V356.759ZM756.964 356.759H751.123V355.714H756.964V356.759ZM745.282 356.759H739.441V355.714H745.282V356.759ZM733.6 356.759H727.759V355.714H733.6V356.759ZM721.918 356.759H716.077V355.714H721.918V356.759Z" fill="#2957A5"/>
<path d="M800.557 359.377L800.469 356.759H797.851V355.714H801.481L801.602 359.344L800.557 359.377Z" fill="#2957A5"/>
<path d="M803.23 441.151L803.043 435.31H804.077L804.275 441.151H803.23ZM802.9 429.469L802.713 423.628H803.758L803.945 429.469H802.9ZM802.526 417.798L802.328 411.957H803.373L803.56 417.798H802.526ZM802.141 406.116L801.954 400.275H802.988L803.186 406.116H802.141ZM801.756 394.434L801.569 388.593H802.614L802.801 394.434H801.756ZM801.382 382.752L801.184 376.911H802.284L802.471 382.752H801.382ZM800.997 371.07L800.81 365.229H801.844L802.042 371.07H800.997Z" fill="#2957A5"/>
</g>
<path d="M776.302 418.05H737.901C734.339 418.022 730.925 416.624 728.367 414.146C725.809 411.667 724.303 408.299 724.162 404.74C724.037 401.543 725.106 398.413 727.162 395.961C729.218 393.509 732.113 391.909 735.283 391.474C736.114 388.296 737.977 385.484 740.579 383.479C743.181 381.475 746.375 380.391 749.66 380.397C752.364 380.402 755.021 381.102 757.375 382.432C759.73 383.761 761.702 385.674 763.102 387.987C764.31 387.613 765.567 387.424 766.831 387.426C770.107 387.457 773.258 388.686 775.69 390.88C778.121 393.075 779.666 396.084 780.031 399.339C781.709 400.141 783.137 401.383 784.164 402.932C785.191 404.482 785.778 406.282 785.861 408.139C785.912 409.424 785.701 410.706 785.243 411.908C784.785 413.109 784.088 414.205 783.195 415.13C782.302 416.055 781.231 416.79 780.046 417.29C778.862 417.79 777.588 418.045 776.302 418.039V418.05ZM749.66 382.96C746.806 382.943 744.035 383.923 741.826 385.73C739.617 387.538 738.108 390.059 737.56 392.86L737.373 393.839L736.383 393.905C733.688 394.07 731.164 395.284 729.353 397.286C727.542 399.289 726.586 401.921 726.692 404.619C726.805 407.515 728.03 410.255 730.111 412.271C732.192 414.287 734.971 415.423 737.868 415.443H776.269C777.21 415.452 778.142 415.269 779.01 414.905C779.878 414.542 780.663 414.006 781.317 413.33C781.971 412.655 782.481 411.853 782.816 410.974C783.151 410.094 783.304 409.156 783.265 408.216C783.195 406.721 782.691 405.278 781.813 404.065C780.936 402.852 779.724 401.921 778.326 401.385L777.534 401.077V400.23C777.394 397.477 776.209 394.881 774.22 392.971C772.231 391.062 769.588 389.984 766.831 389.956C765.518 389.954 764.218 390.208 763.003 390.704L761.903 391.144L761.364 390.11C760.253 387.965 758.573 386.166 756.51 384.909C754.446 383.652 752.076 382.986 749.66 382.982V382.96Z" fill="#2957A5"/>
<path d="M765.236 405.599L754.643 395.336L744.721 405.599H750.529L750.881 416.203H759.78L759.428 405.599H765.236Z" fill="#2957A5"/>
<path d="M932.7 363.93C933.712 365.393 934.526 366.625 935.362 367.989C936.198 369.353 936.99 370.673 937.76 372.048C939.3 374.776 940.73 377.548 942.039 380.452C943.386 383.348 944.576 386.315 945.603 389.34C946.699 392.444 947.567 395.624 948.199 398.855L948.617 401.363L948.672 401.682L948.738 402.078C948.738 402.463 948.826 402.793 948.837 403.178C948.859 403.61 948.859 404.043 948.837 404.476L948.782 405.169L948.661 405.939C948.568 406.485 948.428 407.022 948.243 407.545C948.041 408.126 947.783 408.686 947.473 409.217C946.856 410.294 946.029 411.236 945.042 411.989C943.589 413.093 941.884 413.819 940.081 414.101C938.896 414.295 937.693 414.354 936.495 414.277C935.517 414.231 934.543 414.117 933.58 413.936C931.88 413.609 930.201 413.179 928.553 412.649C925.541 411.639 922.601 410.427 919.753 409.019C916.944 407.664 914.219 406.144 911.591 404.465L914.759 397.447C920.224 398.924 925.76 400.121 931.347 401.033C932.582 401.219 933.827 401.326 935.076 401.352C935.874 401.42 936.678 401.331 937.441 401.088C937.507 401.033 937.254 400.956 936.528 401.44C935.926 401.88 935.466 402.489 935.208 403.189C935.139 403.36 935.084 403.537 935.043 403.717L934.977 404.069C934.98 404.131 934.98 404.193 934.977 404.256V404.113V403.882L934.482 402.034C932.887 396.871 930.818 391.866 928.3 387.085C927.057 384.599 925.693 382.146 924.307 379.715C923.614 378.494 922.899 377.295 922.184 376.096C921.469 374.897 920.699 373.643 920.061 372.642L932.7 363.93Z" fill="#EACAAE"/>
<path d="M915.969 398.041L911.195 393.289L906.454 403.86C906.454 403.86 910.942 406.357 914.935 404.542L915.969 398.041Z" fill="#EACAAE"/>
<path d="M904.144 389.494L900.624 398.426L906.443 403.86L911.195 393.289L904.144 389.494Z" fill="#EACAAE"/>
<path d="M920.25 367.468L828.666 351.336L812.533 442.92L904.117 459.052L920.25 367.468Z" fill="#2957A5"/>
<path opacity="0.6" d="M920.25 367.468L828.666 351.336L812.533 442.92L904.117 459.052L920.25 367.468Z" fill="white"/>
<path d="M915.002 371.134L832.334 356.572L817.772 439.241L900.44 453.802L915.002 371.134Z" fill="white"/>
<path opacity="0.3" d="M871.243 398.809C878.254 393.898 879.957 384.234 875.046 377.223C870.135 370.212 860.47 368.509 853.459 373.42C846.448 378.331 844.746 387.996 849.657 395.007C854.568 402.018 864.232 403.72 871.243 398.809Z" fill="#2957A5"/>
<path opacity="0.2" d="M881.726 408.678L854.017 428.082L841.279 409.888L820.368 424.529L817.772 439.258L900.437 453.811L903.033 439.093L881.726 408.678Z" fill="#2957A5"/>
<path d="M886.269 330.611C886.269 331.348 885.917 331.953 885.433 331.964C884.949 331.975 884.553 331.381 884.542 330.655C884.531 329.929 884.905 329.313 885.378 329.313C885.851 329.313 886.258 329.885 886.269 330.611Z" fill="#263238"/>
<path d="M885.983 331.942C885.153 334.197 884.02 336.328 882.617 338.278C883.125 338.624 883.701 338.855 884.307 338.956C884.913 339.057 885.534 339.024 886.126 338.861L885.983 331.942Z" fill="#FF5652"/>
<path d="M888.854 326.497C888.74 326.519 888.621 326.495 888.524 326.431C888.094 326.104 887.59 325.888 887.057 325.802C886.524 325.716 885.977 325.761 885.466 325.936C885.36 325.979 885.24 325.979 885.134 325.935C885.028 325.89 884.943 325.806 884.9 325.699C884.856 325.593 884.856 325.473 884.9 325.367C884.945 325.261 885.03 325.176 885.136 325.133C885.784 324.917 886.474 324.858 887.149 324.962C887.824 325.065 888.465 325.327 889.019 325.727C889.112 325.791 889.176 325.89 889.196 326.001C889.217 326.112 889.193 326.227 889.129 326.321C889.063 326.412 888.965 326.475 888.854 326.497Z" fill="#263238"/>
<path d="M907.477 333.405C907.015 340.159 907.543 353.788 912.702 357.605C912.702 357.605 911.437 363.105 899.194 364.656C885.741 366.339 891.923 358.782 891.923 358.782C899.051 356.098 898.182 350.675 896.257 345.714L907.477 333.405Z" fill="#EACAAE"/>
<path d="M940.829 625.477H940.752C940.589 625.392 940.458 625.259 940.375 625.095C940.292 624.931 940.262 624.746 940.29 624.564C940.293 624.42 940.328 624.278 940.393 624.149C940.458 624.019 940.55 623.906 940.664 623.816C941.698 622.936 944.712 623.321 944.844 623.332C944.884 623.34 944.922 623.358 944.953 623.386C944.984 623.413 945.007 623.447 945.02 623.486C945.032 623.526 945.032 623.567 945.02 623.606C945.008 623.645 944.985 623.68 944.954 623.706C944.25 624.278 941.918 625.851 940.829 625.477ZM944.272 623.673C943.249 623.596 941.555 623.585 940.972 624.102C940.906 624.156 940.852 624.223 940.814 624.299C940.776 624.375 940.755 624.458 940.752 624.542C940.752 624.949 940.906 625.026 940.961 625.059C941.5 625.334 943.161 624.498 944.272 623.673Z" fill="#2957A5"/>
<path d="M943.293 623.398C942.193 623.035 941.093 622.408 940.928 621.77C940.884 621.615 940.896 621.449 940.96 621.301C941.024 621.153 941.137 621.031 941.28 620.956C941.415 620.864 941.569 620.802 941.73 620.773C941.891 620.745 942.056 620.751 942.215 620.791C943.546 621.066 944.932 623.31 944.998 623.398C945.02 623.431 945.031 623.469 945.031 623.508C945.031 623.548 945.02 623.586 944.998 623.618C944.981 623.653 944.954 623.682 944.921 623.701C944.888 623.721 944.85 623.73 944.811 623.728C944.292 623.69 943.781 623.579 943.293 623.398ZM942.281 621.253H942.127C942.024 621.226 941.917 621.222 941.812 621.241C941.708 621.26 941.609 621.302 941.522 621.363C941.291 621.517 941.324 621.638 941.335 621.693C941.511 622.276 943.227 623.09 944.382 623.299C943.877 622.442 943.151 621.736 942.281 621.253Z" fill="#2957A5"/>
<path d="M874.037 640.514C872.871 640.514 871.749 640.349 871.364 639.832C871.267 639.693 871.215 639.528 871.215 639.359C871.215 639.19 871.267 639.025 871.364 638.886C871.44 638.763 871.539 638.655 871.656 638.57C871.773 638.486 871.905 638.425 872.046 638.391C873.553 637.973 876.732 639.777 876.864 639.854C876.902 639.878 876.932 639.913 876.95 639.954C876.967 639.995 876.972 640.041 876.963 640.085C876.957 640.128 876.938 640.168 876.908 640.199C876.879 640.231 876.84 640.252 876.798 640.261C875.886 640.422 874.963 640.507 874.037 640.514ZM872.596 638.754C872.457 638.736 872.317 638.736 872.178 638.754C872.091 638.774 872.009 638.811 871.937 638.864C871.865 638.917 871.805 638.985 871.76 639.062C871.606 639.326 871.661 639.458 871.76 639.535C872.178 640.118 874.477 640.129 876.16 639.898C875.059 639.285 873.848 638.896 872.596 638.754Z" fill="#2957A5"/>
<path d="M876.776 640.25H876.688C875.588 639.766 873.388 637.797 873.586 636.774C873.586 636.532 873.795 636.235 874.389 636.169C874.602 636.148 874.817 636.17 875.021 636.234C875.225 636.299 875.415 636.404 875.577 636.543C876.732 637.489 876.985 639.931 876.985 640.041C876.989 640.077 876.983 640.114 876.967 640.147C876.952 640.18 876.927 640.208 876.897 640.228C876.861 640.251 876.818 640.258 876.776 640.25ZM874.576 636.565H874.4C874.015 636.565 873.993 636.763 873.982 636.807C873.883 637.423 875.357 639.007 876.468 639.634C876.37 638.602 875.955 637.626 875.28 636.84C875.078 636.674 874.826 636.58 874.565 636.576L874.576 636.565Z" fill="#2957A5"/>
<path d="M886.753 640.041H877.678L876.776 619.031H885.851L886.753 640.041Z" fill="#EACAAE"/>
<path d="M954.612 620.879L946.197 623.189L935.428 603.488L943.843 601.178L954.612 620.879Z" fill="#EACAAE"/>
<path d="M944.932 622.276L954.018 617.623C954.18 617.544 954.363 617.522 954.538 617.56C954.714 617.598 954.871 617.694 954.986 617.832L960.255 624.19C960.381 624.346 960.471 624.529 960.517 624.725C960.563 624.921 960.564 625.124 960.521 625.321C960.478 625.517 960.391 625.702 960.267 625.86C960.143 626.018 959.984 626.147 959.804 626.236C956.614 627.798 954.975 628.436 951.004 630.449C948.551 631.703 941.247 637.137 937.562 638.149C933.877 639.161 932.447 635.586 933.866 634.849C938.522 632.455 942.105 628.393 943.898 623.475C944.082 622.96 944.45 622.533 944.932 622.276Z" fill="#263238"/>
<path d="M877.7 638.996H887.6C887.779 638.997 887.953 639.058 888.093 639.17C888.232 639.282 888.33 639.438 888.37 639.612L890.163 647.686C890.208 647.881 890.209 648.084 890.164 648.279C890.119 648.473 890.029 648.655 889.903 648.811C889.777 648.966 889.616 649.09 889.434 649.173C889.253 649.257 889.054 649.297 888.854 649.292C885.279 649.237 880.109 649.028 875.654 649.028C870.396 649.028 865.864 649.314 859.704 649.314C855.975 649.314 854.941 645.541 856.503 645.2C863.598 643.649 869.395 643.484 875.533 639.7C876.177 639.27 876.927 639.027 877.7 638.996Z" fill="#263238"/>
<path d="M916.728 374.413C917.674 376.844 918.719 379.22 919.775 381.453C921.579 385.314 923.383 388.68 924.692 391.001C925.858 393.102 926.628 394.301 926.628 394.301L946.428 384.467C946.428 384.467 938.442 361.51 930.104 358.947C921.579 356.45 912.449 363.468 916.728 374.413Z" fill="#263238"/>
<path opacity="0.2" d="M925.517 376.679C923.79 377.944 922.558 381.365 921.678 385.38C922.778 387.58 923.878 389.505 924.692 391.001C925.858 393.102 926.628 394.301 926.628 394.301L928.894 393.201C928.85 387.527 927.703 381.915 925.517 376.679Z" fill="#001011"/>
<path d="M874.818 389.054C874.818 392.134 874.895 395.533 875.06 399.284C875.511 409.459 876.622 422.142 878.745 437.905H927.277C927.618 430.458 922.932 394.103 930.126 358.991C924.756 357.962 919.325 357.279 913.868 356.945C906.995 356.548 900.105 356.548 893.232 356.945C888.522 357.429 883.855 358.271 879.273 359.464C879.273 359.464 874.807 364.513 874.818 389.054Z" fill="#263238"/>
<path d="M887.303 374.644C886.582 376.154 885.778 377.623 884.894 379.044C884.091 380.342 883.277 381.596 882.441 382.806C880.769 385.226 879.02 387.558 877.183 389.835C873.485 394.457 869.388 398.745 864.94 402.65C862.568 404.729 860.025 406.606 857.339 408.26L856.239 408.898L855.953 409.052L855.557 409.25L854.754 409.635C853.721 410.122 852.636 410.491 851.52 410.735C849.544 411.132 847.52 411.236 845.514 411.043C842.166 410.644 838.912 409.665 835.9 408.15C834.506 407.467 833.158 406.696 831.863 405.84C830.551 404.99 829.298 404.053 828.112 403.035L832.006 396.435C836.769 397.689 842.137 398.811 845.833 398.283C846.597 398.21 847.342 398.001 848.033 397.667C848.26 397.556 848.474 397.419 848.671 397.26L848.77 397.161H848.836L848.99 397.04L849.661 396.578C851.544 395.143 853.33 393.585 855.007 391.914C858.598 388.28 861.939 384.406 865.006 380.32C866.579 378.263 868.097 376.151 869.56 374.028C870.275 372.928 870.99 371.916 871.65 370.871C872.31 369.826 872.97 368.759 873.311 368.088L887.303 374.644Z" fill="#EACAAE"/>
<path d="M833.942 397.348L825.571 393.377L824.812 404.608C824.812 404.608 831.324 405.708 834.767 403.189L833.942 397.348Z" fill="#EACAAE"/>
<path d="M815.022 395.291L818.245 403.849L824.812 404.608L825.571 393.377L815.022 395.291Z" fill="#EACAAE"/>
<path d="M893.298 368.693C893.012 377.372 875.148 397.348 875.148 397.348L856.283 385.05C856.283 385.05 862.3 373.83 870 365.723C881.759 353.513 893.639 358.287 893.298 368.693Z" fill="#263238"/>
<path opacity="0.2" d="M876.776 619.031L877.238 629.866H886.324L885.862 619.031H876.776Z" fill="#001011"/>
<path opacity="0.2" d="M943.843 601.178L935.428 603.499L940.983 613.652L949.398 611.331L943.843 601.178Z" fill="#001011"/>
<path d="M910.7 328.554C910.337 337.552 910.59 342.854 906.146 347.551C899.458 354.624 888.282 350.741 885.95 341.82C883.849 333.779 884.795 320.414 893.518 316.652C895.437 315.811 897.54 315.476 899.625 315.678C901.711 315.88 903.71 316.613 905.432 317.806C907.154 318.999 908.543 320.613 909.465 322.494C910.387 324.375 910.812 326.462 910.7 328.554Z" fill="#EACAAE"/>
<path d="M892.737 332.844C889.492 330.534 886.313 325.771 886.566 322.229C883.563 322.108 881.55 317.158 883.2 313.55C884.234 315.871 887.809 314.166 889.206 312.329C888.458 310.558 888.579 307.621 893.716 305.542C893.287 307.038 893.507 309.557 898.666 307.742C904.925 305.542 915.925 307.016 912.702 314.463C917.102 315.266 922.833 324.363 917.971 329.148C913.109 333.933 912.108 341.666 907.95 342.458C903.792 343.25 892.979 343.525 892.737 332.844Z" fill="#263238"/>
<path d="M909.776 314.166C911.526 313.438 913.47 313.321 915.294 313.834C917.118 314.347 918.716 315.46 919.83 316.993C916.665 315.482 913.264 314.526 909.776 314.166Z" fill="#263238"/>
<path d="M895.102 332.459C895.012 334.458 894.266 336.371 892.979 337.904C891.263 339.906 889.382 338.74 888.997 336.375C888.656 334.252 889.14 330.644 891.274 329.511C893.408 328.378 895.179 330.05 895.102 332.459Z" fill="#EACAAE"/>
<path d="M895.96 437.905C895.96 437.905 891.681 506.578 899.799 531.9C912.647 572.006 935.571 612.981 935.571 612.981L951.961 608.053C951.961 608.053 933.932 564.801 928.003 531.053C922.679 500.704 927.277 462.732 927.277 437.938L895.96 437.905Z" fill="#2957A5"/>
<path opacity="0.2" d="M895.3 453.25C899.876 451.919 903.451 452.425 904.375 456.495C906.795 467.132 899.535 495.193 895.916 508.03C894.42 489.55 894.761 467.55 895.3 453.25Z" fill="#001011"/>
<path d="M930.94 608.284C930.874 608.284 935.219 613.355 935.219 613.355L953.127 607.965L950.85 601.915L930.94 608.284Z" fill="#263238"/>
<path d="M878.8 437.905C878.8 437.905 865.127 495.842 864.159 523.518C863.059 554.56 873.916 627.765 873.916 627.765H889.316C889.316 627.765 891.208 553.988 891.89 525.718C892.638 494.918 910.722 437.905 910.722 437.905H878.8Z" fill="#2957A5"/>
<path d="M870.902 621.649C870.836 621.649 871.771 628.029 871.771 628.029H890.471L890.977 622.331L870.902 621.649Z" fill="#263238"/>
<path d="M885.532 354.822C887.622 354.096 903.473 352.083 914.979 352.699C921.579 353.051 925.253 353.799 927.937 355.064C930.621 356.329 925.814 362.896 923.592 363.699C924.494 366.207 919.489 369.408 916.64 370.926C915.54 373.28 904.243 375.458 897.643 370.398C892.572 366.504 879.603 356.879 885.532 354.822Z" fill="#2957A5"/>
</g>
<path d="M457.745 694V688.111L453.412 681.133H455.609L458.308 685.501C458.372 685.612 458.451 685.759 458.545 685.94C458.645 686.122 458.744 686.318 458.844 686.529C458.926 686.324 459.011 686.131 459.099 685.949C459.192 685.768 459.289 685.601 459.389 685.448L462.157 681.133H464.249L459.819 688.111V694H457.745ZM470.05 689.86C470.05 689.087 469.801 688.434 469.303 687.9C468.805 687.361 468.195 687.092 467.475 687.092C466.76 687.092 466.15 687.361 465.646 687.9C465.148 688.434 464.899 689.087 464.899 689.86C464.899 690.634 465.148 691.29 465.646 691.829C466.15 692.362 466.76 692.629 467.475 692.629C468.189 692.629 468.796 692.362 469.294 691.829C469.798 691.29 470.05 690.634 470.05 689.86ZM462.887 689.843C462.887 689.233 463.001 688.659 463.229 688.12C463.464 687.575 463.798 687.092 464.231 686.67C464.659 686.254 465.151 685.935 465.708 685.712C466.265 685.489 466.848 685.378 467.457 685.378C468.084 685.378 468.673 685.489 469.224 685.712C469.78 685.935 470.278 686.263 470.718 686.696C471.157 687.124 471.491 687.607 471.72 688.146C471.948 688.686 472.062 689.251 472.062 689.843C472.062 690.458 471.948 691.035 471.72 691.574C471.497 692.113 471.169 692.591 470.735 693.007C470.278 693.446 469.771 693.777 469.215 694C468.658 694.229 468.072 694.343 467.457 694.343C466.854 694.343 466.273 694.229 465.717 694C465.16 693.777 464.665 693.452 464.231 693.024C463.792 692.591 463.458 692.104 463.229 691.565C463.001 691.026 462.887 690.452 462.887 689.843ZM475.93 685.668V690.361C475.93 691.17 476.097 691.75 476.431 692.102C476.765 692.453 477.307 692.629 478.057 692.629C478.807 692.629 479.349 692.453 479.683 692.102C480.017 691.75 480.184 691.17 480.184 690.361V685.668H482.091V689.79C482.091 691.384 481.771 692.541 481.133 693.262C480.494 693.982 479.475 694.343 478.074 694.343C476.65 694.343 475.619 693.985 474.98 693.271C474.342 692.556 474.022 691.396 474.022 689.79V685.668H475.93ZM486.573 686.995C486.778 686.444 487.048 686.037 487.382 685.773C487.722 685.51 488.141 685.378 488.639 685.378C488.908 685.378 489.172 685.41 489.43 685.475C489.693 685.539 489.951 685.633 490.203 685.756L489.518 687.373C489.354 687.256 489.175 687.171 488.981 687.118C488.794 687.06 488.583 687.03 488.349 687.03C487.716 687.03 487.262 687.285 486.986 687.795C486.711 688.299 486.573 689.148 486.573 690.344V694H484.666V685.65H486.573V686.995ZM502.71 689.808C502.71 688.946 502.508 688.275 502.104 687.795C501.705 687.314 501.146 687.074 500.425 687.074C499.704 687.074 499.136 687.323 498.72 687.821C498.31 688.313 498.104 688.999 498.104 689.878C498.104 690.763 498.304 691.445 498.702 691.926C499.101 692.406 499.663 692.646 500.39 692.646C501.075 692.646 501.632 692.386 502.06 691.864C502.493 691.343 502.71 690.657 502.71 689.808ZM504.564 693.481C504.564 695.11 504.239 696.256 503.589 696.918C502.938 697.586 501.843 697.92 500.302 697.92C499.153 697.92 498.236 697.677 497.551 697.19C496.865 696.71 496.517 696.068 496.505 695.266L498.553 695.257C498.582 695.614 498.749 695.887 499.054 696.074C499.358 696.262 499.786 696.355 500.337 696.355C501.151 696.355 501.737 696.177 502.095 695.819C502.452 695.462 502.634 694.864 502.64 694.026L502.657 692.919C502.317 693.399 501.919 693.757 501.462 693.991C501.011 694.226 500.492 694.343 499.906 694.343C498.729 694.343 497.8 693.941 497.12 693.139C496.446 692.33 496.109 691.226 496.109 689.825C496.109 688.495 496.455 687.423 497.146 686.608C497.838 685.788 498.74 685.378 499.854 685.378C500.533 685.378 501.113 685.521 501.594 685.809C502.08 686.09 502.435 686.497 502.657 687.03V685.668H504.564V693.481ZM515.041 694H513.134V692.919C512.794 693.399 512.396 693.757 511.938 693.991C511.487 694.226 510.969 694.343 510.383 694.343C509.205 694.343 508.276 693.941 507.597 693.139C506.923 692.33 506.586 691.226 506.586 689.825C506.586 688.495 506.932 687.423 507.623 686.608C508.314 685.788 509.217 685.378 510.33 685.378C511.01 685.378 511.59 685.521 512.07 685.809C512.557 686.09 512.911 686.497 513.134 687.03V685.668H515.041V694ZM513.187 689.808C513.187 688.946 512.984 688.275 512.58 687.795C512.182 687.314 511.622 687.074 510.901 687.074C510.181 687.074 509.612 687.323 509.196 687.821C508.786 688.313 508.581 688.999 508.581 689.878C508.581 690.763 508.78 691.445 509.179 691.926C509.577 692.406 510.14 692.646 510.866 692.646C511.552 692.646 512.108 692.386 512.536 691.864C512.97 691.343 513.187 690.657 513.187 689.808ZM517.766 694V680.377H519.673V694H517.766ZM522.494 694V680.377H524.401V694H522.494ZM535.159 690.115H528.497C528.544 690.895 528.775 691.504 529.191 691.943C529.607 692.377 530.161 692.594 530.853 692.594C531.468 692.594 531.98 692.465 532.391 692.207C532.801 691.949 533.158 691.533 533.463 690.959L535.071 691.855C534.603 692.693 534.022 693.317 533.331 693.728C532.64 694.138 531.828 694.343 530.896 694.343C529.561 694.343 528.497 693.936 527.706 693.121C526.915 692.307 526.52 691.22 526.52 689.86C526.52 688.554 526.927 687.481 527.741 686.644C528.562 685.8 529.613 685.378 530.896 685.378C532.238 685.378 533.284 685.762 534.034 686.529C534.784 687.297 535.159 688.372 535.159 689.755V690.115ZM533.182 688.832C533.105 688.234 532.877 687.78 532.496 687.47C532.115 687.153 531.594 686.995 530.932 686.995C530.305 686.995 529.801 687.147 529.42 687.452C529.039 687.757 528.772 688.217 528.62 688.832H533.182ZM539.062 686.995C539.267 686.444 539.536 686.037 539.87 685.773C540.21 685.51 540.629 685.378 541.127 685.378C541.396 685.378 541.66 685.41 541.918 685.475C542.182 685.539 542.439 685.633 542.691 685.756L542.006 687.373C541.842 687.256 541.663 687.171 541.47 687.118C541.282 687.06 541.071 687.03 540.837 687.03C540.204 687.03 539.75 687.285 539.475 687.795C539.199 688.299 539.062 689.148 539.062 690.344V694H537.154V685.65H539.062V686.995ZM545.214 697.92H543.254L545.539 693.279L542.48 685.668H544.59L546.119 689.983C546.207 690.247 546.283 690.517 546.348 690.792C546.418 691.062 546.474 691.337 546.515 691.618C546.591 691.325 546.772 690.859 547.06 690.221L547.104 690.115L549.16 685.668H551.226L545.214 697.92ZM557.536 682.064C557.536 681.742 557.653 681.464 557.888 681.229C558.128 680.995 558.412 680.878 558.74 680.878C559.08 680.878 559.361 680.992 559.584 681.221C559.812 681.443 559.927 681.725 559.927 682.064C559.927 682.404 559.812 682.691 559.584 682.926C559.355 683.154 559.074 683.269 558.74 683.269C558.412 683.269 558.128 683.151 557.888 682.917C557.653 682.677 557.536 682.393 557.536 682.064ZM557.791 694V685.668H559.698V694H557.791ZM561.474 692.488L563.056 691.627C563.173 692.043 563.39 692.359 563.706 692.576C564.022 692.793 564.43 692.901 564.928 692.901C565.355 692.901 565.689 692.805 565.93 692.611C566.176 692.412 566.299 692.143 566.299 691.803C566.299 691.352 565.865 690.965 564.998 690.643C564.705 690.537 564.479 690.449 564.321 690.379C563.431 690.01 562.807 689.635 562.449 689.254C562.098 688.873 561.922 688.41 561.922 687.865C561.922 687.121 562.212 686.518 562.792 686.055C563.378 685.592 564.151 685.36 565.112 685.36C565.757 685.36 566.308 685.48 566.765 685.721C567.228 685.955 567.564 686.292 567.775 686.731L566.422 687.663C566.322 687.399 566.146 687.191 565.895 687.039C565.648 686.881 565.361 686.802 565.033 686.802C564.67 686.802 564.377 686.89 564.154 687.065C563.938 687.235 563.829 687.464 563.829 687.751C563.829 688.185 564.321 688.58 565.306 688.938C565.616 689.049 565.856 689.14 566.026 689.21C566.794 689.515 567.342 689.86 567.67 690.247C568.004 690.628 568.171 691.105 568.171 691.68C568.171 692.512 567.869 693.165 567.266 693.64C566.662 694.108 565.83 694.343 564.77 694.343C563.955 694.343 563.278 694.19 562.739 693.886C562.2 693.581 561.778 693.115 561.474 692.488ZM581.75 688.041C581.457 687.719 581.114 687.473 580.722 687.303C580.335 687.133 579.916 687.048 579.465 687.048C578.686 687.048 578.062 687.3 577.593 687.804C577.124 688.308 576.89 688.976 576.89 689.808C576.89 690.675 577.124 691.357 577.593 691.855C578.067 692.348 578.721 692.594 579.553 692.594C580.016 692.594 580.429 692.509 580.792 692.339C581.155 692.163 581.475 691.899 581.75 691.548V693.745C581.398 693.944 581.021 694.094 580.616 694.193C580.218 694.293 579.793 694.343 579.342 694.343C578.035 694.343 576.969 693.927 576.143 693.095C575.322 692.263 574.912 691.185 574.912 689.86C574.912 688.519 575.337 687.438 576.187 686.617C577.042 685.791 578.158 685.378 579.535 685.378C579.969 685.378 580.367 685.422 580.73 685.51C581.094 685.592 581.434 685.721 581.75 685.896V688.041ZM585.547 685.668V690.361C585.547 691.17 585.714 691.75 586.048 692.102C586.382 692.453 586.924 692.629 587.674 692.629C588.424 692.629 588.966 692.453 589.3 692.102C589.634 691.75 589.801 691.17 589.801 690.361V685.668H591.708V689.79C591.708 691.384 591.389 692.541 590.75 693.262C590.111 693.982 589.092 694.343 587.691 694.343C586.268 694.343 585.236 693.985 584.598 693.271C583.959 692.556 583.64 691.396 583.64 689.79V685.668H585.547ZM596.19 686.995C596.396 686.444 596.665 686.037 596.999 685.773C597.339 685.51 597.758 685.378 598.256 685.378C598.525 685.378 598.789 685.41 599.047 685.475C599.311 685.539 599.568 685.633 599.82 685.756L599.135 687.373C598.971 687.256 598.792 687.171 598.599 687.118C598.411 687.06 598.2 687.03 597.966 687.03C597.333 687.03 596.879 687.285 596.604 687.795C596.328 688.299 596.19 689.148 596.19 690.344V694H594.283V685.65H596.19V686.995ZM602.817 686.995C603.022 686.444 603.292 686.037 603.626 685.773C603.966 685.51 604.385 685.378 604.883 685.378C605.152 685.378 605.416 685.41 605.674 685.475C605.938 685.539 606.195 685.633 606.447 685.756L605.762 687.373C605.598 687.256 605.419 687.171 605.226 687.118C605.038 687.06 604.827 687.03 604.593 687.03C603.96 687.03 603.506 687.285 603.23 687.795C602.955 688.299 602.817 689.148 602.817 690.344V694H600.91V685.65H602.817V686.995ZM615.562 690.115H608.899C608.946 690.895 609.178 691.504 609.594 691.943C610.01 692.377 610.563 692.594 611.255 692.594C611.87 692.594 612.383 692.465 612.793 692.207C613.203 691.949 613.561 691.533 613.865 690.959L615.474 691.855C615.005 692.693 614.425 693.317 613.733 693.728C613.042 694.138 612.23 694.343 611.299 694.343C609.963 694.343 608.899 693.936 608.108 693.121C607.317 692.307 606.922 691.22 606.922 689.86C606.922 688.554 607.329 687.481 608.144 686.644C608.964 685.8 610.016 685.378 611.299 685.378C612.641 685.378 613.687 685.762 614.437 686.529C615.187 687.297 615.562 688.372 615.562 689.755V690.115ZM613.584 688.832C613.508 688.234 613.279 687.78 612.898 687.47C612.518 687.153 611.996 686.995 611.334 686.995C610.707 686.995 610.203 687.147 609.822 687.452C609.441 687.757 609.175 688.217 609.022 688.832H613.584ZM617.557 694V685.668H619.35V687.03C619.73 686.456 620.179 686.037 620.694 685.773C621.21 685.51 621.837 685.378 622.575 685.378C623.196 685.378 623.724 685.478 624.157 685.677C624.597 685.87 624.939 686.16 625.186 686.547C625.332 686.775 625.438 687.042 625.502 687.347C625.566 687.651 625.599 688.185 625.599 688.946V694H623.674V689.72C623.674 688.624 623.539 687.897 623.27 687.54C623.006 687.177 622.534 686.995 621.854 686.995C621.409 686.995 621.011 687.077 620.659 687.241C620.313 687.405 620.041 687.637 619.842 687.936C619.701 688.135 619.602 688.393 619.543 688.709C619.49 689.02 619.464 689.518 619.464 690.203V694H617.557ZM628.587 694V687.338H627.128V685.668H628.587V682.513H630.494V685.668H631.953V687.338H630.494V694H628.587ZM633.693 694V680.377H635.601V694H633.693ZM639.767 697.92H637.807L640.092 693.279L637.033 685.668H639.143L640.672 689.983C640.76 690.247 640.836 690.517 640.9 690.792C640.971 691.062 641.026 691.337 641.067 691.618C641.144 691.325 641.325 690.859 641.612 690.221L641.656 690.115L643.713 685.668H645.778L639.767 697.92ZM660.28 690.115H653.618C653.665 690.895 653.896 691.504 654.312 691.943C654.729 692.377 655.282 692.594 655.974 692.594C656.589 692.594 657.102 692.465 657.512 692.207C657.922 691.949 658.279 691.533 658.584 690.959L660.192 691.855C659.724 692.693 659.144 693.317 658.452 693.728C657.761 694.138 656.949 694.343 656.018 694.343C654.682 694.343 653.618 693.936 652.827 693.121C652.036 692.307 651.641 691.22 651.641 689.86C651.641 688.554 652.048 687.481 652.862 686.644C653.683 685.8 654.734 685.378 656.018 685.378C657.359 685.378 658.405 685.762 659.155 686.529C659.905 687.297 660.28 688.372 660.28 689.755V690.115ZM658.303 688.832C658.227 688.234 657.998 687.78 657.617 687.47C657.236 687.153 656.715 686.995 656.053 686.995C655.426 686.995 654.922 687.147 654.541 687.452C654.16 687.757 653.894 688.217 653.741 688.832H658.303ZM664.183 694H662.275V685.668H664.068V687.03C664.449 686.45 664.88 686.028 665.36 685.765C665.847 685.495 666.418 685.36 667.074 685.36C667.725 685.36 668.264 685.498 668.691 685.773C669.119 686.043 669.444 686.456 669.667 687.013C670.106 686.438 670.572 686.02 671.064 685.756C671.562 685.492 672.128 685.36 672.761 685.36C673.312 685.36 673.792 685.463 674.202 685.668C674.612 685.867 674.932 686.16 675.16 686.547C675.266 686.729 675.342 686.945 675.389 687.197C675.441 687.449 675.468 687.81 675.468 688.278V688.946V694H673.561V689.72C673.561 688.601 673.44 687.865 673.2 687.514C672.966 687.156 672.544 686.978 671.935 686.978C671.185 686.978 670.648 687.218 670.326 687.698C670.01 688.173 669.852 689.008 669.852 690.203V694H667.927V689.72C667.927 688.688 667.801 687.974 667.549 687.575C667.303 687.177 666.875 686.978 666.266 686.978C665.891 686.978 665.548 687.062 665.237 687.232C664.927 687.402 664.681 687.637 664.499 687.936C664.382 688.129 664.3 688.366 664.253 688.647C664.206 688.929 664.183 689.447 664.183 690.203V694ZM679.871 689.808C679.871 690.669 680.085 691.357 680.513 691.873C680.946 692.389 681.515 692.646 682.218 692.646C682.938 692.646 683.495 692.406 683.888 691.926C684.286 691.445 684.485 690.763 684.485 689.878C684.485 688.999 684.277 688.313 683.861 687.821C683.451 687.323 682.886 687.074 682.165 687.074C681.444 687.074 680.882 687.314 680.478 687.795C680.073 688.275 679.871 688.946 679.871 689.808ZM678.025 697.92V685.668H679.933V687.03C680.155 686.503 680.51 686.096 680.996 685.809C681.488 685.521 682.074 685.378 682.754 685.378C683.861 685.378 684.758 685.788 685.443 686.608C686.135 687.423 686.48 688.495 686.48 689.825C686.48 691.226 686.141 692.33 685.461 693.139C684.787 693.941 683.861 694.343 682.684 694.343C682.098 694.343 681.576 694.226 681.119 693.991C680.668 693.757 680.272 693.399 679.933 692.919V697.92H678.025ZM688.95 694V687.338H687.491V685.668H688.95V682.513H690.857V685.668H692.316V687.338H690.857V694H688.95ZM695.401 697.92H693.441L695.727 693.279L692.668 685.668H694.777L696.307 689.983C696.395 690.247 696.471 690.517 696.535 690.792C696.605 691.062 696.661 691.337 696.702 691.618C696.778 691.325 696.96 690.859 697.247 690.221L697.291 690.115L699.348 685.668H701.413L695.401 697.92ZM701.141 693.024C701.141 692.702 701.252 692.427 701.475 692.198C701.697 691.97 701.97 691.855 702.292 691.855C702.614 691.855 702.887 691.97 703.109 692.198C703.332 692.427 703.443 692.702 703.443 693.024C703.443 693.341 703.332 693.61 703.109 693.833C702.887 694.05 702.614 694.158 702.292 694.158C701.97 694.158 701.697 694.05 701.475 693.833C701.252 693.61 701.141 693.341 701.141 693.024ZM711.178 691.425L712.848 690.651C713.006 691.226 713.296 691.665 713.718 691.97C714.14 692.269 714.679 692.418 715.335 692.418C715.956 692.418 716.448 692.245 716.812 691.899C717.181 691.554 717.365 691.091 717.365 690.511C717.365 689.755 716.738 689.081 715.484 688.489C715.309 688.401 715.174 688.337 715.08 688.296C713.662 687.604 712.716 686.98 712.241 686.424C711.772 685.861 711.538 685.176 711.538 684.367C711.538 683.318 711.893 682.469 712.602 681.818C713.316 681.168 714.251 680.843 715.405 680.843C716.354 680.843 717.148 681.027 717.787 681.396C718.426 681.76 718.868 682.284 719.114 682.97L717.479 683.813C717.222 683.409 716.938 683.113 716.627 682.926C716.322 682.738 715.971 682.645 715.572 682.645C715.01 682.645 714.562 682.791 714.228 683.084C713.899 683.377 713.735 683.77 713.735 684.262C713.735 685.035 714.462 685.756 715.915 686.424C716.026 686.477 716.114 686.518 716.179 686.547C717.45 687.133 718.323 687.707 718.798 688.27C719.272 688.826 719.51 689.523 719.51 690.361C719.51 691.58 719.126 692.55 718.358 693.271C717.591 693.985 716.554 694.343 715.247 694.343C714.151 694.343 713.252 694.091 712.549 693.587C711.852 693.083 711.395 692.362 711.178 691.425ZM722.085 694V687.338H720.626V685.668H722.085V682.513H723.992V685.668H725.451V687.338H723.992V694H722.085ZM734.943 694H733.036V692.919C732.696 693.399 732.298 693.757 731.841 693.991C731.39 694.226 730.871 694.343 730.285 694.343C729.107 694.343 728.179 693.941 727.499 693.139C726.825 692.33 726.488 691.226 726.488 689.825C726.488 688.495 726.834 687.423 727.525 686.608C728.217 685.788 729.119 685.378 730.232 685.378C730.912 685.378 731.492 685.521 731.973 685.809C732.459 686.09 732.813 686.497 733.036 687.03V685.668H734.943V694ZM733.089 689.808C733.089 688.946 732.887 688.275 732.482 687.795C732.084 687.314 731.524 687.074 730.804 687.074C730.083 687.074 729.515 687.323 729.099 687.821C728.688 688.313 728.483 688.999 728.483 689.878C728.483 690.763 728.683 691.445 729.081 691.926C729.479 692.406 730.042 692.646 730.769 692.646C731.454 692.646 732.011 692.386 732.438 691.864C732.872 691.343 733.089 690.657 733.089 689.808ZM739.487 686.995C739.692 686.444 739.962 686.037 740.296 685.773C740.636 685.51 741.055 685.378 741.553 685.378C741.822 685.378 742.086 685.41 742.344 685.475C742.607 685.539 742.865 685.633 743.117 685.756L742.432 687.373C742.268 687.256 742.089 687.171 741.896 687.118C741.708 687.06 741.497 687.03 741.263 687.03C740.63 687.03 740.176 687.285 739.9 687.795C739.625 688.299 739.487 689.148 739.487 690.344V694H737.58V685.65H739.487V686.995ZM744.655 694V687.338H743.196V685.668H744.655V682.513H746.562V685.668H748.021V687.338H746.562V694H744.655ZM756.951 685.668V690.361C756.951 691.17 757.118 691.75 757.452 692.102C757.786 692.453 758.328 692.629 759.078 692.629C759.828 692.629 760.37 692.453 760.704 692.102C761.038 691.75 761.205 691.17 761.205 690.361V685.668H763.112V689.79C763.112 691.384 762.793 692.541 762.154 693.262C761.516 693.982 760.496 694.343 759.096 694.343C757.672 694.343 756.641 693.985 756.002 693.271C755.363 692.556 755.044 691.396 755.044 689.79V685.668H756.951ZM767.533 689.808C767.533 690.669 767.747 691.357 768.175 691.873C768.608 692.389 769.177 692.646 769.88 692.646C770.601 692.646 771.157 692.406 771.55 691.926C771.948 691.445 772.147 690.763 772.147 689.878C772.147 688.999 771.939 688.313 771.523 687.821C771.113 687.323 770.548 687.074 769.827 687.074C769.106 687.074 768.544 687.314 768.14 687.795C767.735 688.275 767.533 688.946 767.533 689.808ZM765.688 697.92V685.668H767.595V687.03C767.817 686.503 768.172 686.096 768.658 685.809C769.15 685.521 769.736 685.378 770.416 685.378C771.523 685.378 772.42 685.788 773.105 686.608C773.797 687.423 774.143 688.495 774.143 689.825C774.143 691.226 773.803 692.33 773.123 693.139C772.449 693.941 771.523 694.343 770.346 694.343C769.76 694.343 769.238 694.226 768.781 693.991C768.33 693.757 767.935 693.399 767.595 692.919V697.92H765.688ZM776.252 694V680.377H778.159V694H776.252ZM787.44 689.86C787.44 689.087 787.191 688.434 786.693 687.9C786.195 687.361 785.586 687.092 784.865 687.092C784.15 687.092 783.541 687.361 783.037 687.9C782.539 688.434 782.29 689.087 782.29 689.86C782.29 690.634 782.539 691.29 783.037 691.829C783.541 692.362 784.15 692.629 784.865 692.629C785.58 692.629 786.187 692.362 786.685 691.829C787.188 691.29 787.44 690.634 787.44 689.86ZM780.277 689.843C780.277 689.233 780.392 688.659 780.62 688.12C780.854 687.575 781.188 687.092 781.622 686.67C782.05 686.254 782.542 685.935 783.099 685.712C783.655 685.489 784.238 685.378 784.848 685.378C785.475 685.378 786.063 685.489 786.614 685.712C787.171 685.935 787.669 686.263 788.108 686.696C788.548 687.124 788.882 687.607 789.11 688.146C789.339 688.686 789.453 689.251 789.453 689.843C789.453 690.458 789.339 691.035 789.11 691.574C788.888 692.113 788.56 692.591 788.126 693.007C787.669 693.446 787.162 693.777 786.605 694C786.049 694.229 785.463 694.343 784.848 694.343C784.244 694.343 783.664 694.229 783.107 694C782.551 693.777 782.056 693.452 781.622 693.024C781.183 692.591 780.849 692.104 780.62 691.565C780.392 691.026 780.277 690.452 780.277 689.843ZM799.314 694H797.407V692.919C797.067 693.399 796.669 693.757 796.212 693.991C795.761 694.226 795.242 694.343 794.656 694.343C793.479 694.343 792.55 693.941 791.87 693.139C791.196 692.33 790.859 691.226 790.859 689.825C790.859 688.495 791.205 687.423 791.896 686.608C792.588 685.788 793.49 685.378 794.604 685.378C795.283 685.378 795.863 685.521 796.344 685.809C796.83 686.09 797.185 686.497 797.407 687.03V685.668H799.314V694ZM797.46 689.808C797.46 688.946 797.258 688.275 796.854 687.795C796.455 687.314 795.896 687.074 795.175 687.074C794.454 687.074 793.886 687.323 793.47 687.821C793.06 688.313 792.854 688.999 792.854 689.878C792.854 690.763 793.054 691.445 793.452 691.926C793.851 692.406 794.413 692.646 795.14 692.646C795.825 692.646 796.382 692.386 796.81 691.864C797.243 691.343 797.46 690.657 797.46 689.808ZM807.937 689.808C807.937 688.946 807.734 688.275 807.33 687.795C806.932 687.314 806.372 687.074 805.651 687.074C804.931 687.074 804.362 687.323 803.946 687.821C803.536 688.313 803.331 688.999 803.331 689.878C803.331 690.763 803.53 691.445 803.929 691.926C804.327 692.406 804.89 692.646 805.616 692.646C806.308 692.646 806.867 692.389 807.295 691.873C807.723 691.352 807.937 690.663 807.937 689.808ZM807.884 680.377H809.791V694H807.884V692.919C807.544 693.399 807.146 693.757 806.688 693.991C806.237 694.226 805.719 694.343 805.133 694.343C803.955 694.343 803.026 693.941 802.347 693.139C801.673 692.33 801.336 691.226 801.336 689.825C801.336 688.495 801.682 687.423 802.373 686.608C803.064 685.788 803.967 685.378 805.08 685.378C805.76 685.378 806.34 685.521 806.82 685.809C807.307 686.09 807.661 686.497 807.884 687.03V680.377ZM812.261 682.064C812.261 681.742 812.378 681.464 812.612 681.229C812.853 680.995 813.137 680.878 813.465 680.878C813.805 680.878 814.086 680.992 814.309 681.221C814.537 681.443 814.651 681.725 814.651 682.064C814.651 682.404 814.537 682.691 814.309 682.926C814.08 683.154 813.799 683.269 813.465 683.269C813.137 683.269 812.853 683.151 812.612 682.917C812.378 682.677 812.261 682.393 812.261 682.064ZM812.516 694V685.668H814.423V694H812.516ZM817.156 694V685.668H818.949V687.03C819.33 686.456 819.778 686.037 820.294 685.773C820.81 685.51 821.437 685.378 822.175 685.378C822.796 685.378 823.323 685.478 823.757 685.677C824.196 685.87 824.539 686.16 824.785 686.547C824.932 686.775 825.037 687.042 825.102 687.347C825.166 687.651 825.198 688.185 825.198 688.946V694H823.273V689.72C823.273 688.624 823.139 687.897 822.869 687.54C822.605 687.177 822.134 686.995 821.454 686.995C821.009 686.995 820.61 687.077 820.259 687.241C819.913 687.405 819.641 687.637 819.441 687.936C819.301 688.135 819.201 688.393 819.143 688.709C819.09 689.02 819.063 689.518 819.063 690.203V694H817.156ZM833.724 689.808C833.724 688.946 833.521 688.275 833.117 687.795C832.719 687.314 832.159 687.074 831.438 687.074C830.718 687.074 830.149 687.323 829.733 687.821C829.323 688.313 829.118 688.999 829.118 689.878C829.118 690.763 829.317 691.445 829.716 691.926C830.114 692.406 830.677 692.646 831.403 692.646C832.089 692.646 832.646 692.386 833.073 691.864C833.507 691.343 833.724 690.657 833.724 689.808ZM835.578 693.481C835.578 695.11 835.253 696.256 834.603 696.918C833.952 697.586 832.856 697.92 831.315 697.92C830.167 697.92 829.25 697.677 828.564 697.19C827.879 696.71 827.53 696.068 827.519 695.266L829.566 695.257C829.596 695.614 829.763 695.887 830.067 696.074C830.372 696.262 830.8 696.355 831.351 696.355C832.165 696.355 832.751 696.177 833.108 695.819C833.466 695.462 833.647 694.864 833.653 694.026L833.671 692.919C833.331 693.399 832.933 693.757 832.476 693.991C832.024 694.226 831.506 694.343 830.92 694.343C829.742 694.343 828.813 693.941 828.134 693.139C827.46 692.33 827.123 691.226 827.123 689.825C827.123 688.495 827.469 687.423 828.16 686.608C828.852 685.788 829.754 685.378 830.867 685.378C831.547 685.378 832.127 685.521 832.607 685.809C833.094 686.09 833.448 686.497 833.671 687.03V685.668H835.578V693.481ZM843.479 682.064C843.479 681.742 843.597 681.464 843.831 681.229C844.071 680.995 844.355 680.878 844.684 680.878C845.023 680.878 845.305 680.992 845.527 681.221C845.756 681.443 845.87 681.725 845.87 682.064C845.87 682.404 845.756 682.691 845.527 682.926C845.299 683.154 845.018 683.269 844.684 683.269C844.355 683.269 844.071 683.151 843.831 682.917C843.597 682.677 843.479 682.393 843.479 682.064ZM843.734 694V685.668H845.642V694H843.734ZM850.282 694H848.375V685.668H850.168V687.03C850.549 686.45 850.979 686.028 851.46 685.765C851.946 685.495 852.518 685.36 853.174 685.36C853.824 685.36 854.363 685.498 854.791 685.773C855.219 686.043 855.544 686.456 855.767 687.013C856.206 686.438 856.672 686.02 857.164 685.756C857.662 685.492 858.228 685.36 858.86 685.36C859.411 685.36 859.892 685.463 860.302 685.668C860.712 685.867 861.031 686.16 861.26 686.547C861.365 686.729 861.441 686.945 861.488 687.197C861.541 687.449 861.567 687.81 861.567 688.278V688.946V694H859.66V689.72C859.66 688.601 859.54 687.865 859.3 687.514C859.065 687.156 858.644 686.978 858.034 686.978C857.284 686.978 856.748 687.218 856.426 687.698C856.109 688.173 855.951 689.008 855.951 690.203V694H854.026V689.72C854.026 688.688 853.9 687.974 853.648 687.575C853.402 687.177 852.975 686.978 852.365 686.978C851.99 686.978 851.647 687.062 851.337 687.232C851.026 687.402 850.78 687.637 850.599 687.936C850.481 688.129 850.399 688.366 850.353 688.647C850.306 688.929 850.282 689.447 850.282 690.203V694ZM871.965 694H870.058V692.919C869.718 693.399 869.319 693.757 868.862 693.991C868.411 694.226 867.893 694.343 867.307 694.343C866.129 694.343 865.2 693.941 864.521 693.139C863.847 692.33 863.51 691.226 863.51 689.825C863.51 688.495 863.855 687.423 864.547 686.608C865.238 685.788 866.141 685.378 867.254 685.378C867.934 685.378 868.514 685.521 868.994 685.809C869.48 686.09 869.835 686.497 870.058 687.03V685.668H871.965V694ZM870.11 689.808C870.11 688.946 869.908 688.275 869.504 687.795C869.105 687.314 868.546 687.074 867.825 687.074C867.104 687.074 866.536 687.323 866.12 687.821C865.71 688.313 865.505 688.999 865.505 689.878C865.505 690.763 865.704 691.445 866.103 691.926C866.501 692.406 867.063 692.646 867.79 692.646C868.476 692.646 869.032 692.386 869.46 691.864C869.894 691.343 870.11 690.657 870.11 689.808ZM880.587 689.808C880.587 688.946 880.385 688.275 879.98 687.795C879.582 687.314 879.022 687.074 878.302 687.074C877.581 687.074 877.013 687.323 876.597 687.821C876.187 688.313 875.981 688.999 875.981 689.878C875.981 690.763 876.181 691.445 876.579 691.926C876.978 692.406 877.54 692.646 878.267 692.646C878.952 692.646 879.509 692.386 879.937 691.864C880.37 691.343 880.587 690.657 880.587 689.808ZM882.441 693.481C882.441 695.11 882.116 696.256 881.466 696.918C880.815 697.586 879.72 697.92 878.179 697.92C877.03 697.92 876.113 697.677 875.428 697.19C874.742 696.71 874.394 696.068 874.382 695.266L876.43 695.257C876.459 695.614 876.626 695.887 876.931 696.074C877.235 696.262 877.663 696.355 878.214 696.355C879.028 696.355 879.614 696.177 879.972 695.819C880.329 695.462 880.511 694.864 880.517 694.026L880.534 692.919C880.194 693.399 879.796 693.757 879.339 693.991C878.888 694.226 878.369 694.343 877.783 694.343C876.605 694.343 875.677 693.941 874.997 693.139C874.323 692.33 873.986 691.226 873.986 689.825C873.986 688.495 874.332 687.423 875.023 686.608C875.715 685.788 876.617 685.378 877.73 685.378C878.41 685.378 878.99 685.521 879.471 685.809C879.957 686.09 880.312 686.497 880.534 687.03V685.668H882.441V693.481ZM893.103 690.115H886.44C886.487 690.895 886.719 691.504 887.135 691.943C887.551 692.377 888.104 692.594 888.796 692.594C889.411 692.594 889.924 692.465 890.334 692.207C890.744 691.949 891.102 691.533 891.406 690.959L893.015 691.855C892.546 692.693 891.966 693.317 891.274 693.728C890.583 694.138 889.771 694.343 888.84 694.343C887.504 694.343 886.44 693.936 885.649 693.121C884.858 692.307 884.463 691.22 884.463 689.86C884.463 688.554 884.87 687.481 885.685 686.644C886.505 685.8 887.557 685.378 888.84 685.378C890.182 685.378 891.228 685.762 891.978 686.529C892.728 687.297 893.103 688.372 893.103 689.755V690.115ZM891.125 688.832C891.049 688.234 890.82 687.78 890.439 687.47C890.059 687.153 889.537 686.995 888.875 686.995C888.248 686.995 887.744 687.147 887.363 687.452C886.982 687.757 886.716 688.217 886.563 688.832H891.125ZM894.14 692.488L895.722 691.627C895.839 692.043 896.056 692.359 896.372 692.576C896.688 692.793 897.096 692.901 897.594 692.901C898.021 692.901 898.355 692.805 898.596 692.611C898.842 692.412 898.965 692.143 898.965 691.803C898.965 691.352 898.531 690.965 897.664 690.643C897.371 690.537 897.146 690.449 896.987 690.379C896.097 690.01 895.473 689.635 895.115 689.254C894.764 688.873 894.588 688.41 894.588 687.865C894.588 687.121 894.878 686.518 895.458 686.055C896.044 685.592 896.817 685.36 897.778 685.36C898.423 685.36 898.974 685.48 899.431 685.721C899.894 685.955 900.23 686.292 900.441 686.731L899.088 687.663C898.988 687.399 898.812 687.191 898.561 687.039C898.314 686.881 898.027 686.802 897.699 686.802C897.336 686.802 897.043 686.89 896.82 687.065C896.604 687.235 896.495 687.464 896.495 687.751C896.495 688.185 896.987 688.58 897.972 688.938C898.282 689.049 898.522 689.14 898.692 689.21C899.46 689.515 900.008 689.86 900.336 690.247C900.67 690.628 900.837 691.105 900.837 691.68C900.837 692.512 900.535 693.165 899.932 693.64C899.328 694.108 898.496 694.343 897.436 694.343C896.621 694.343 895.944 694.19 895.405 693.886C894.866 693.581 894.444 693.115 894.14 692.488ZM908.642 694V687.338H907.183V685.668H908.642V682.513H910.549V685.668H912.008V687.338H910.549V694H908.642ZM920.208 689.86C920.208 689.087 919.959 688.434 919.461 687.9C918.963 687.361 918.354 687.092 917.633 687.092C916.918 687.092 916.309 687.361 915.805 687.9C915.307 688.434 915.058 689.087 915.058 689.86C915.058 690.634 915.307 691.29 915.805 691.829C916.309 692.362 916.918 692.629 917.633 692.629C918.348 692.629 918.954 692.362 919.452 691.829C919.956 691.29 920.208 690.634 920.208 689.86ZM913.045 689.843C913.045 689.233 913.159 688.659 913.388 688.12C913.622 687.575 913.956 687.092 914.39 686.67C914.817 686.254 915.31 685.935 915.866 685.712C916.423 685.489 917.006 685.378 917.615 685.378C918.242 685.378 918.831 685.489 919.382 685.712C919.938 685.935 920.437 686.263 920.876 686.696C921.315 687.124 921.649 687.607 921.878 688.146C922.106 688.686 922.221 689.251 922.221 689.843C922.221 690.458 922.106 691.035 921.878 691.574C921.655 692.113 921.327 692.591 920.894 693.007C920.437 693.446 919.93 693.777 919.373 694C918.816 694.229 918.23 694.343 917.615 694.343C917.012 694.343 916.432 694.229 915.875 694C915.318 693.777 914.823 693.452 914.39 693.024C913.95 692.591 913.616 692.104 913.388 691.565C913.159 691.026 913.045 690.452 913.045 689.843ZM931.52 689.808C931.52 690.657 931.736 691.343 932.17 691.864C932.609 692.386 933.175 692.646 933.866 692.646C934.587 692.646 935.144 692.406 935.536 691.926C935.935 691.445 936.134 690.763 936.134 689.878C936.134 688.999 935.926 688.313 935.51 687.821C935.1 687.323 934.534 687.074 933.813 687.074C933.093 687.074 932.53 687.314 932.126 687.795C931.722 688.275 931.52 688.946 931.52 689.808ZM931.581 680.377V687.03C931.804 686.503 932.158 686.096 932.645 685.809C933.137 685.521 933.723 685.378 934.402 685.378C935.51 685.378 936.406 685.788 937.092 686.608C937.783 687.423 938.129 688.495 938.129 689.825C938.129 691.226 937.789 692.33 937.109 693.139C936.436 693.941 935.51 694.343 934.332 694.343C933.746 694.343 933.225 694.226 932.768 693.991C932.316 693.757 931.921 693.399 931.581 692.919V694H929.674V680.377H931.581ZM942.058 686.995C942.263 686.444 942.532 686.037 942.866 685.773C943.206 685.51 943.625 685.378 944.123 685.378C944.393 685.378 944.656 685.41 944.914 685.475C945.178 685.539 945.436 685.633 945.688 685.756L945.002 687.373C944.838 687.256 944.659 687.171 944.466 687.118C944.278 687.06 944.067 687.03 943.833 687.03C943.2 687.03 942.746 687.285 942.471 687.795C942.195 688.299 942.058 689.148 942.058 690.344V694H940.15V685.65H942.058V686.995ZM946.61 682.064C946.61 681.742 946.728 681.464 946.962 681.229C947.202 680.995 947.486 680.878 947.814 680.878C948.154 680.878 948.436 680.992 948.658 681.221C948.887 681.443 949.001 681.725 949.001 682.064C949.001 682.404 948.887 682.691 948.658 682.926C948.43 683.154 948.148 683.269 947.814 683.269C947.486 683.269 947.202 683.151 946.962 682.917C946.728 682.677 946.61 682.393 946.61 682.064ZM946.865 694V685.668H948.772V694H946.865ZM951.506 694V685.668H953.299V687.03C953.68 686.456 954.128 686.037 954.644 685.773C955.159 685.51 955.786 685.378 956.524 685.378C957.146 685.378 957.673 685.478 958.106 685.677C958.546 685.87 958.889 686.16 959.135 686.547C959.281 686.775 959.387 687.042 959.451 687.347C959.516 687.651 959.548 688.185 959.548 688.946V694H957.623V689.72C957.623 688.624 957.488 687.897 957.219 687.54C956.955 687.177 956.483 686.995 955.804 686.995C955.358 686.995 954.96 687.077 954.608 687.241C954.263 687.405 953.99 687.637 953.791 687.936C953.65 688.135 953.551 688.393 953.492 688.709C953.439 689.02 953.413 689.518 953.413 690.203V694H951.506ZM968.073 689.808C968.073 688.946 967.871 688.275 967.467 687.795C967.068 687.314 966.509 687.074 965.788 687.074C965.067 687.074 964.499 687.323 964.083 687.821C963.673 688.313 963.468 688.999 963.468 689.878C963.468 690.763 963.667 691.445 964.065 691.926C964.464 692.406 965.026 692.646 965.753 692.646C966.438 692.646 966.995 692.386 967.423 691.864C967.856 691.343 968.073 690.657 968.073 689.808ZM969.928 693.481C969.928 695.11 969.603 696.256 968.952 696.918C968.302 697.586 967.206 697.92 965.665 697.92C964.517 697.92 963.6 697.677 962.914 697.19C962.229 696.71 961.88 696.068 961.868 695.266L963.916 695.257C963.945 695.614 964.112 695.887 964.417 696.074C964.722 696.262 965.149 696.355 965.7 696.355C966.515 696.355 967.101 696.177 967.458 695.819C967.815 695.462 967.997 694.864 968.003 694.026L968.021 692.919C967.681 693.399 967.282 693.757 966.825 693.991C966.374 694.226 965.855 694.343 965.27 694.343C964.092 694.343 963.163 693.941 962.483 693.139C961.81 692.33 961.473 691.226 961.473 689.825C961.473 688.495 961.818 687.423 962.51 686.608C963.201 685.788 964.104 685.378 965.217 685.378C965.896 685.378 966.477 685.521 966.957 685.809C967.443 686.09 967.798 686.497 968.021 687.03V685.668H969.928V693.481ZM979.429 697.92H977.469L979.754 693.279L976.695 685.668H978.805L980.334 689.983C980.422 690.247 980.498 690.517 980.562 690.792C980.633 691.062 980.688 691.337 980.729 691.618C980.806 691.325 980.987 690.859 981.274 690.221L981.318 690.115L983.375 685.668H985.44L979.429 697.92ZM993.034 689.86C993.034 689.087 992.785 688.434 992.287 687.9C991.789 687.361 991.18 687.092 990.459 687.092C989.744 687.092 989.135 687.361 988.631 687.9C988.133 688.434 987.884 689.087 987.884 689.86C987.884 690.634 988.133 691.29 988.631 691.829C989.135 692.362 989.744 692.629 990.459 692.629C991.174 692.629 991.78 692.362 992.278 691.829C992.782 691.29 993.034 690.634 993.034 689.86ZM985.871 689.843C985.871 689.233 985.985 688.659 986.214 688.12C986.448 687.575 986.782 687.092 987.216 686.67C987.644 686.254 988.136 685.935 988.692 685.712C989.249 685.489 989.832 685.378 990.441 685.378C991.068 685.378 991.657 685.489 992.208 685.712C992.765 685.935 993.263 686.263 993.702 686.696C994.142 687.124 994.476 687.607 994.704 688.146C994.933 688.686 995.047 689.251 995.047 689.843C995.047 690.458 994.933 691.035 994.704 691.574C994.481 692.113 994.153 692.591 993.72 693.007C993.263 693.446 992.756 693.777 992.199 694C991.643 694.229 991.057 694.343 990.441 694.343C989.838 694.343 989.258 694.229 988.701 694C988.145 693.777 987.649 693.452 987.216 693.024C986.776 692.591 986.442 692.104 986.214 691.565C985.985 691.026 985.871 690.452 985.871 689.843ZM998.914 685.668V690.361C998.914 691.17 999.081 691.75 999.415 692.102C999.749 692.453 1000.29 692.629 1001.04 692.629C1001.79 692.629 1002.33 692.453 1002.67 692.102C1003 691.75 1003.17 691.17 1003.17 690.361V685.668H1005.08V689.79C1005.08 691.384 1004.76 692.541 1004.12 693.262C1003.48 693.982 1002.46 694.343 1001.06 694.343C999.635 694.343 998.604 693.985 997.965 693.271C997.326 692.556 997.007 691.396 997.007 689.79V685.668H998.914ZM1009.56 686.995C1009.76 686.444 1010.03 686.037 1010.37 685.773C1010.71 685.51 1011.12 685.378 1011.62 685.378C1011.89 685.378 1012.16 685.41 1012.41 685.475C1012.68 685.539 1012.94 685.633 1013.19 685.756L1012.5 687.373C1012.34 687.256 1012.16 687.171 1011.97 687.118C1011.78 687.06 1011.57 687.03 1011.33 687.03C1010.7 687.03 1010.25 687.285 1009.97 687.795C1009.7 688.299 1009.56 689.148 1009.56 690.344V694H1007.65V685.65H1009.56V686.995ZM1025.93 688.041C1025.64 687.719 1025.3 687.473 1024.9 687.303C1024.52 687.133 1024.1 687.048 1023.65 687.048C1022.87 687.048 1022.24 687.3 1021.77 687.804C1021.31 688.308 1021.07 688.976 1021.07 689.808C1021.07 690.675 1021.31 691.357 1021.77 691.855C1022.25 692.348 1022.9 692.594 1023.73 692.594C1024.2 692.594 1024.61 692.509 1024.97 692.339C1025.34 692.163 1025.66 691.899 1025.93 691.548V693.745C1025.58 693.944 1025.2 694.094 1024.8 694.193C1024.4 694.293 1023.97 694.343 1023.52 694.343C1022.22 694.343 1021.15 693.927 1020.32 693.095C1019.5 692.263 1019.09 691.185 1019.09 689.86C1019.09 688.519 1019.52 687.438 1020.37 686.617C1021.22 685.791 1022.34 685.378 1023.72 685.378C1024.15 685.378 1024.55 685.422 1024.91 685.51C1025.28 685.592 1025.62 685.721 1025.93 685.896V688.041ZM1034.43 689.86C1034.43 689.087 1034.18 688.434 1033.68 687.9C1033.19 687.361 1032.58 687.092 1031.86 687.092C1031.14 687.092 1030.53 687.361 1030.03 687.9C1029.53 688.434 1029.28 689.087 1029.28 689.86C1029.28 690.634 1029.53 691.29 1030.03 691.829C1030.53 692.362 1031.14 692.629 1031.86 692.629C1032.57 692.629 1033.18 692.362 1033.67 691.829C1034.18 691.29 1034.43 690.634 1034.43 689.86ZM1027.27 689.843C1027.27 689.233 1027.38 688.659 1027.61 688.12C1027.84 687.575 1028.18 687.092 1028.61 686.67C1029.04 686.254 1029.53 685.935 1030.09 685.712C1030.65 685.489 1031.23 685.378 1031.84 685.378C1032.46 685.378 1033.05 685.489 1033.6 685.712C1034.16 685.935 1034.66 686.263 1035.1 686.696C1035.54 687.124 1035.87 687.607 1036.1 688.146C1036.33 688.686 1036.44 689.251 1036.44 689.843C1036.44 690.458 1036.33 691.035 1036.1 691.574C1035.88 692.113 1035.55 692.591 1035.12 693.007C1034.66 693.446 1034.15 693.777 1033.6 694C1033.04 694.229 1032.45 694.343 1031.84 694.343C1031.23 694.343 1030.65 694.229 1030.1 694C1029.54 693.777 1029.05 693.452 1028.61 693.024C1028.17 692.591 1027.84 692.104 1027.61 691.565C1027.38 691.026 1027.27 690.452 1027.27 689.843ZM1038.55 694V680.377H1040.46V694H1038.55ZM1043.28 694V680.377H1045.19V694H1043.28ZM1055.95 690.115H1049.28C1049.33 690.895 1049.56 691.504 1049.98 691.943C1050.39 692.377 1050.95 692.594 1051.64 692.594C1052.25 692.594 1052.77 692.465 1053.18 692.207C1053.59 691.949 1053.95 691.533 1054.25 690.959L1055.86 691.855C1055.39 692.693 1054.81 693.317 1054.12 693.728C1053.43 694.138 1052.62 694.343 1051.68 694.343C1050.35 694.343 1049.28 693.936 1048.49 693.121C1047.7 692.307 1047.31 691.22 1047.31 689.86C1047.31 688.554 1047.71 687.481 1048.53 686.644C1049.35 685.8 1050.4 685.378 1051.68 685.378C1053.03 685.378 1054.07 685.762 1054.82 686.529C1055.57 687.297 1055.95 688.372 1055.95 689.755V690.115ZM1053.97 688.832C1053.89 688.234 1053.66 687.78 1053.28 687.47C1052.9 687.153 1052.38 686.995 1051.72 686.995C1051.09 686.995 1050.59 687.147 1050.21 687.452C1049.83 687.757 1049.56 688.217 1049.41 688.832H1053.97ZM1064.16 688.041C1063.87 687.719 1063.53 687.473 1063.14 687.303C1062.75 687.133 1062.33 687.048 1061.88 687.048C1061.1 687.048 1060.48 687.3 1060.01 687.804C1059.54 688.308 1059.3 688.976 1059.3 689.808C1059.3 690.675 1059.54 691.357 1060.01 691.855C1060.48 692.348 1061.13 692.594 1061.97 692.594C1062.43 692.594 1062.84 692.509 1063.21 692.339C1063.57 692.163 1063.89 691.899 1064.16 691.548V693.745C1063.81 693.944 1063.43 694.094 1063.03 694.193C1062.63 694.293 1062.21 694.343 1061.76 694.343C1060.45 694.343 1059.38 693.927 1058.56 693.095C1057.74 692.263 1057.33 691.185 1057.33 689.86C1057.33 688.519 1057.75 687.438 1058.6 686.617C1059.46 685.791 1060.57 685.378 1061.95 685.378C1062.38 685.378 1062.78 685.422 1063.14 685.51C1063.51 685.592 1063.85 685.721 1064.16 685.896V688.041ZM1066.56 694V687.338H1065.1V685.668H1066.56V682.513H1068.47V685.668H1069.93V687.338H1068.47V694H1066.56ZM1071.42 682.064C1071.42 681.742 1071.53 681.464 1071.77 681.229C1072.01 680.995 1072.29 680.878 1072.62 680.878C1072.96 680.878 1073.24 680.992 1073.46 681.221C1073.69 681.443 1073.81 681.725 1073.81 682.064C1073.81 682.404 1073.69 682.691 1073.46 682.926C1073.23 683.154 1072.95 683.269 1072.62 683.269C1072.29 683.269 1072.01 683.151 1071.77 682.917C1071.53 682.677 1071.42 682.393 1071.42 682.064ZM1071.67 694V685.668H1073.58V694H1071.67ZM1082.86 689.86C1082.86 689.087 1082.61 688.434 1082.11 687.9C1081.61 687.361 1081 687.092 1080.28 687.092C1079.57 687.092 1078.96 687.361 1078.46 687.9C1077.96 688.434 1077.71 689.087 1077.71 689.86C1077.71 690.634 1077.96 691.29 1078.46 691.829C1078.96 692.362 1079.57 692.629 1080.28 692.629C1081 692.629 1081.6 692.362 1082.1 691.829C1082.61 691.29 1082.86 690.634 1082.86 689.86ZM1075.7 689.843C1075.7 689.233 1075.81 688.659 1076.04 688.12C1076.27 687.575 1076.61 687.092 1077.04 686.67C1077.47 686.254 1077.96 685.935 1078.52 685.712C1079.07 685.489 1079.66 685.378 1080.27 685.378C1080.89 685.378 1081.48 685.489 1082.03 685.712C1082.59 685.935 1083.09 686.263 1083.53 686.696C1083.97 687.124 1084.3 687.607 1084.53 688.146C1084.76 688.686 1084.87 689.251 1084.87 689.843C1084.87 690.458 1084.76 691.035 1084.53 691.574C1084.31 692.113 1083.98 692.591 1083.54 693.007C1083.09 693.446 1082.58 693.777 1082.02 694C1081.47 694.229 1080.88 694.343 1080.27 694.343C1079.66 694.343 1079.08 694.229 1078.53 694C1077.97 693.777 1077.47 693.452 1077.04 693.024C1076.6 692.591 1076.27 692.104 1076.04 691.565C1075.81 691.026 1075.7 690.452 1075.7 689.843ZM1086.89 694V685.668H1088.69V687.03C1089.07 686.456 1089.51 686.037 1090.03 685.773C1090.55 685.51 1091.17 685.378 1091.91 685.378C1092.53 685.378 1093.06 685.478 1093.49 685.677C1093.93 685.87 1094.28 686.16 1094.52 686.547C1094.67 686.775 1094.77 687.042 1094.84 687.347C1094.9 687.651 1094.93 688.185 1094.93 688.946V694H1093.01V689.72C1093.01 688.624 1092.88 687.897 1092.61 687.54C1092.34 687.177 1091.87 686.995 1091.19 686.995C1090.75 686.995 1090.35 687.077 1090 687.241C1089.65 687.405 1089.38 687.637 1089.18 687.936C1089.04 688.135 1088.94 688.393 1088.88 688.709C1088.83 689.02 1088.8 689.518 1088.8 690.203V694H1086.89ZM1103.35 694V687.338H1101.9V685.668H1103.35V682.513H1105.26V685.668H1106.72V687.338H1105.26V694H1103.35ZM1114.92 689.86C1114.92 689.087 1114.67 688.434 1114.17 687.9C1113.68 687.361 1113.07 687.092 1112.35 687.092C1111.63 687.092 1111.02 687.361 1110.52 687.9C1110.02 688.434 1109.77 689.087 1109.77 689.86C1109.77 690.634 1110.02 691.29 1110.52 691.829C1111.02 692.362 1111.63 692.629 1112.35 692.629C1113.06 692.629 1113.67 692.362 1114.17 691.829C1114.67 691.29 1114.92 690.634 1114.92 689.86ZM1107.76 689.843C1107.76 689.233 1107.87 688.659 1108.1 688.12C1108.33 687.575 1108.67 687.092 1109.1 686.67C1109.53 686.254 1110.02 685.935 1110.58 685.712C1111.14 685.489 1111.72 685.378 1112.33 685.378C1112.96 685.378 1113.54 685.489 1114.09 685.712C1114.65 685.935 1115.15 686.263 1115.59 686.696C1116.03 687.124 1116.36 687.607 1116.59 688.146C1116.82 688.686 1116.93 689.251 1116.93 689.843C1116.93 690.458 1116.82 691.035 1116.59 691.574C1116.37 692.113 1116.04 692.591 1115.61 693.007C1115.15 693.446 1114.64 693.777 1114.09 694C1113.53 694.229 1112.94 694.343 1112.33 694.343C1111.72 694.343 1111.14 694.229 1110.59 694C1110.03 693.777 1109.54 693.452 1109.1 693.024C1108.66 692.591 1108.33 692.104 1108.1 691.565C1107.87 691.026 1107.76 690.452 1107.76 689.843ZM1124.47 694V680.377H1126.38V694H1124.47ZM1128.95 682.064C1128.95 681.742 1129.07 681.464 1129.3 681.229C1129.54 680.995 1129.82 680.878 1130.15 680.878C1130.49 680.878 1130.77 680.992 1131 681.221C1131.22 681.443 1131.34 681.725 1131.34 682.064C1131.34 682.404 1131.22 682.691 1131 682.926C1130.77 683.154 1130.49 683.269 1130.15 683.269C1129.82 683.269 1129.54 683.151 1129.3 682.917C1129.07 682.677 1128.95 682.393 1128.95 682.064ZM1129.2 694V685.668H1131.11V694H1129.2ZM1134.11 694V687.338H1132.65V685.668H1134.11V683.436C1134.11 682.328 1134.34 681.511 1134.79 680.983C1135.26 680.456 1135.97 680.192 1136.94 680.192C1137.14 680.192 1137.35 680.207 1137.57 680.236C1137.79 680.266 1138.01 680.312 1138.23 680.377V682.1C1138.08 682.012 1137.92 681.947 1137.76 681.906C1137.61 681.859 1137.46 681.836 1137.3 681.836C1136.84 681.836 1136.51 681.977 1136.31 682.258C1136.11 682.539 1136.01 683.014 1136.01 683.682V685.668H1138.02V687.338H1136.01V694H1134.11ZM1147.39 690.115H1140.73C1140.77 690.895 1141 691.504 1141.42 691.943C1141.84 692.377 1142.39 692.594 1143.08 692.594C1143.7 692.594 1144.21 692.465 1144.62 692.207C1145.03 691.949 1145.39 691.533 1145.69 690.959L1147.3 691.855C1146.83 692.693 1146.25 693.317 1145.56 693.728C1144.87 694.138 1144.06 694.343 1143.12 694.343C1141.79 694.343 1140.73 693.936 1139.93 693.121C1139.14 692.307 1138.75 691.22 1138.75 689.86C1138.75 688.554 1139.16 687.481 1139.97 686.644C1140.79 685.8 1141.84 685.378 1143.12 685.378C1144.47 685.378 1145.51 685.762 1146.26 686.529C1147.01 687.297 1147.39 688.372 1147.39 689.755V690.115ZM1145.41 688.832C1145.33 688.234 1145.11 687.78 1144.72 687.47C1144.34 687.153 1143.82 686.995 1143.16 686.995C1142.53 686.995 1142.03 687.147 1141.65 687.452C1141.27 687.757 1141 688.217 1140.85 688.832H1145.41ZM1150.02 680.843H1152.03V691.047H1150.02V680.843ZM1149.87 693.191C1149.87 692.875 1149.98 692.605 1150.2 692.383C1150.43 692.154 1150.7 692.04 1151.02 692.04C1151.34 692.04 1151.61 692.151 1151.83 692.374C1152.06 692.597 1152.17 692.869 1152.17 693.191C1152.17 693.508 1152.06 693.777 1151.83 694C1151.61 694.229 1151.34 694.343 1151.02 694.343C1150.7 694.343 1150.42 694.229 1150.2 694C1149.98 693.777 1149.87 693.508 1149.87 693.191Z" fill="#001011"/>
<defs>
<clipPath id="clip0_330_207">
<rect width="440" height="440" fill="white" transform="translate(584 236)"/>
</clipPath>
</defs>
</svg>
