<svg width="24" height="25" viewBox="0 0 24 25" fill="none" xmlns="http://www.w3.org/2000/svg">
<g id="Frame">
<path id="Vector" d="M15.75 9.26855V5.51855C15.75 4.92182 15.5129 4.34952 15.091 3.92756C14.669 3.50561 14.0967 3.26855 13.5 3.26855H7.5C6.90326 3.26855 6.33097 3.50561 5.90901 3.92756C5.48705 4.34952 5.25 4.92182 5.25 5.51855V19.0186C5.25 19.6153 5.48705 20.1876 5.90901 20.6095C6.33097 21.0315 6.90326 21.2686 7.5 21.2686H13.5C14.0967 21.2686 14.669 21.0315 15.091 20.6095C15.5129 20.1876 15.75 19.6153 15.75 19.0186V15.2686M12 9.26855L9 12.2686M9 12.2686L12 15.2686M9 12.2686H21.75" stroke="#565656" stroke-width="1.5" stroke-linecap="round" stroke-linejoin="round"/>
</g>
</svg>
