<svg width="18" height="18" viewBox="0 0 18 18" fill="none" xmlns="http://www.w3.org/2000/svg">
<g id="Frame">
<path id="Vector" d="M12.6465 3.36544L13.9117 2.09944C14.1755 1.83568 14.5332 1.6875 14.9062 1.6875C15.2793 1.6875 15.637 1.83568 15.9008 2.09944C16.1645 2.36319 16.3127 2.72093 16.3127 3.09394C16.3127 3.46695 16.1645 3.82468 15.9008 4.08844L7.9365 12.0527C7.53999 12.449 7.05102 12.7402 6.51375 12.9002L4.5 13.5002L5.1 11.4864C5.25996 10.9492 5.55123 10.4602 5.9475 10.0637L12.6465 3.36544ZM12.6465 3.36544L14.625 5.34394M13.5 10.5002V14.0627C13.5 14.5102 13.3222 14.9395 13.0057 15.2559C12.6893 15.5724 12.2601 15.7502 11.8125 15.7502H3.9375C3.48995 15.7502 3.06072 15.5724 2.74426 15.2559C2.42779 14.9395 2.25 14.5102 2.25 14.0627V6.18769C2.25 5.74013 2.42779 5.31091 2.74426 4.99444C3.06072 4.67798 3.48995 4.50019 3.9375 4.50019H7.5" stroke="#FBFCFF" stroke-width="1.2" stroke-linecap="round" stroke-linejoin="round"/>
</g>
</svg>
