<svg width="24" height="25" viewBox="0 0 24 25" fill="none" xmlns="http://www.w3.org/2000/svg">
<g id="Frame">
<g id="Vector">
<path d="M9.59421 4.20855C9.68421 3.66655 10.1542 3.26855 10.7042 3.26855H13.2972C13.8472 3.26855 14.3172 3.66655 14.4072 4.20855L14.6202 5.48955C14.6832 5.86355 14.9332 6.17555 15.2652 6.35955C15.3392 6.39955 15.4122 6.44255 15.4852 6.48655C15.8102 6.68255 16.2052 6.74355 16.5602 6.61055L17.7772 6.15455C18.0266 6.06076 18.3012 6.05853 18.5521 6.14827C18.803 6.238 19.0139 6.41387 19.1472 6.64455L20.4432 8.89155C20.5763 9.12226 20.6232 9.39269 20.5756 9.65472C20.5279 9.91675 20.3889 10.1534 20.1832 10.3226L19.1802 11.1496C18.8872 11.3906 18.7422 11.7626 18.7502 12.1416C18.7516 12.2265 18.7516 12.3116 18.7502 12.3966C18.7422 12.7746 18.8872 13.1466 19.1802 13.3876L20.1842 14.2146C20.6082 14.5646 20.7182 15.1696 20.4442 15.6446L19.1462 17.8916C19.0131 18.1222 18.8024 18.2981 18.5517 18.388C18.301 18.4779 18.0266 18.476 17.7772 18.3826L16.5602 17.9266C16.2052 17.7936 15.8102 17.8546 15.4842 18.0506C15.4117 18.0947 15.3384 18.1373 15.2642 18.1786C14.9332 18.3616 14.6832 18.6736 14.6202 19.0476L14.4072 20.3286C14.3172 20.8716 13.8472 21.2686 13.2972 21.2686H10.7032C10.1532 21.2686 9.68421 20.8706 9.59321 20.3286L9.38021 19.0476C9.31821 18.6736 9.06821 18.3616 8.73621 18.1776C8.66205 18.1367 8.58871 18.0943 8.51621 18.0506C8.19121 17.8546 7.79621 17.7936 7.44021 17.9266L6.22321 18.3826C5.97393 18.4761 5.69957 18.4782 5.4489 18.3884C5.19824 18.2987 4.98752 18.123 4.85421 17.8926L3.55721 15.6456C3.42415 15.4149 3.37725 15.1444 3.42486 14.8824C3.47247 14.6204 3.6115 14.3837 3.81721 14.2146L4.82121 13.3876C5.11321 13.1476 5.25821 12.7746 5.25121 12.3966C5.24964 12.3116 5.24964 12.2265 5.25121 12.1416C5.25821 11.7616 5.11321 11.3906 4.82121 11.1496L3.81721 10.3226C3.61175 10.1534 3.47288 9.91699 3.42528 9.65518C3.37768 9.39337 3.42442 9.12316 3.55721 8.89255L4.85421 6.64555C4.98739 6.41469 5.19822 6.23861 5.44912 6.14869C5.70002 6.05877 5.97469 6.06085 6.22421 6.15455L7.44021 6.61055C7.79621 6.74355 8.19121 6.68255 8.51621 6.48655C8.58821 6.44255 8.66221 6.40055 8.73621 6.35855C9.06821 6.17555 9.31821 5.86355 9.38021 5.48955L9.59421 4.20855Z" stroke="#565656" stroke-width="1.5" stroke-linecap="round" stroke-linejoin="round"/>
<path d="M15.0002 12.2686C15.0002 13.0642 14.6841 13.8273 14.1215 14.3899C13.5589 14.9525 12.7959 15.2686 12.0002 15.2686C11.2046 15.2686 10.4415 14.9525 9.87888 14.3899C9.31628 13.8273 9.00021 13.0642 9.00021 12.2686C9.00021 11.4729 9.31628 10.7098 9.87888 10.1472C10.4415 9.58462 11.2046 9.26855 12.0002 9.26855C12.7959 9.26855 13.5589 9.58462 14.1215 10.1472C14.6841 10.7098 15.0002 11.4729 15.0002 12.2686Z" stroke="#565656" stroke-width="1.5" stroke-linecap="round" stroke-linejoin="round"/>
</g>
</g>
</svg>
